<svg width="605" height="192" viewBox="0 0 605 192" fill="none" xmlns="http://www.w3.org/2000/svg">
<g filter="url(#filter0_d)">
<rect x="8" y="4" width="145" height="44" fill="white"/>
<rect x="8.5" y="4.5" width="144" height="43" stroke="#1790FF"/>
</g>
<rect x="174" y="159" width="258" height="33" fill="#1790FF"/>
<path d="M78.3561 48.5C78.3561 85.9812 111.992 112 174.246 129.5C236.5 147 302.416 134.335 302.416 158" stroke="#1790FF"/>
<path d="M526.633 48.5C526.633 85.9812 492.997 112 430.743 129.5C368.489 147 302.573 134.335 302.573 158" stroke="#CCCCCC"/>
<path d="M58.78 12.436L58.636 12.472H55.984V22.924H56.8V13.288H58.324C58.096 14.092 57.76 15.184 57.448 16.048C58.228 16.972 58.432 17.776 58.432 18.412C58.432 18.772 58.372 19.096 58.192 19.228C58.12 19.3 57.988 19.324 57.844 19.324C57.676 19.348 57.472 19.336 57.22 19.312C57.352 19.552 57.436 19.9 57.448 20.14C57.688 20.152 57.976 20.14 58.192 20.116C58.432 20.08 58.636 20.02 58.804 19.9C59.128 19.672 59.272 19.144 59.26 18.508C59.26 17.776 59.08 16.924 58.264 15.952C58.648 14.992 59.056 13.78 59.38 12.808L58.78 12.436ZM60.508 19.06C60.196 19.948 59.584 21.052 58.936 21.772C59.128 21.892 59.416 22.132 59.56 22.288C60.268 21.508 60.928 20.32 61.348 19.3L60.508 19.06ZM65.896 18.028L65.908 17.212H63.292V15.376H62.428V17.212H60.784C61.18 16.384 61.576 15.412 61.924 14.38H66.304V13.552H62.176C62.332 13.036 62.476 12.52 62.608 12.016L61.636 11.86C61.54 12.424 61.396 13 61.24 13.552H59.404V14.38H61.012C60.712 15.304 60.424 16.06 60.292 16.36C60.052 16.912 59.86 17.284 59.632 17.344C59.752 17.596 59.896 18.016 59.944 18.208C60.052 18.1 60.436 18.028 61 18.028H62.428V21.832C62.428 22 62.38 22.036 62.224 22.048C62.08 22.048 61.564 22.06 60.988 22.036C61.108 22.288 61.216 22.648 61.252 22.9C62.044 22.9 62.56 22.876 62.872 22.732C63.196 22.576 63.292 22.336 63.292 21.844V18.028H65.896ZM64.288 19.348C64.816 20.248 65.452 21.46 65.764 22.18L66.52 21.784C66.196 21.088 65.536 19.9 65.008 19.012L64.288 19.348ZM75.508 21.88C75.052 21.88 74.968 21.82 74.968 21.46V17.944H78.244V17.08H73.444V14.68H77.38V13.828H73.444V11.968H72.556V13.828H70.432C70.6 13.348 70.756 12.88 70.876 12.424L69.976 12.244C69.688 13.492 69.088 15.076 68.26 16.084C68.488 16.18 68.836 16.36 69.04 16.504C69.436 16 69.796 15.364 70.084 14.68H72.556V17.08H67.78V17.944H70.888C70.684 19.912 70.144 21.448 67.612 22.228C67.816 22.396 68.08 22.756 68.176 22.984C70.9 22.036 71.572 20.284 71.812 17.944H74.08V21.46C74.08 22.432 74.344 22.732 75.4 22.732H77.104C78.052 22.732 78.316 22.264 78.412 20.452C78.16 20.392 77.788 20.236 77.584 20.08C77.536 21.628 77.464 21.88 77.032 21.88H75.508ZM85.048 16.996V15.736H86.788C86.764 16.144 86.692 16.576 86.512 16.996H85.048ZM85.048 13.816H86.788V15.064H85.048V13.816ZM89.296 15.064H87.556V13.816H89.296V15.064ZM89.296 16.996H87.352C87.484 16.576 87.532 16.156 87.556 15.736H89.296V16.996ZM90.112 17.704V13.108H87.028C87.208 12.796 87.412 12.448 87.592 12.124L86.584 11.92C86.488 12.256 86.308 12.712 86.128 13.108H84.244V17.704H86.092C85.708 18.196 85.096 18.664 84.172 19.06C84.352 19.18 84.64 19.408 84.76 19.564C85.948 19.06 86.644 18.4 87.04 17.704H90.112ZM81.04 16.012H83.968V15.232H82.972V11.968H82.192V15.232H81.04V12.208H80.248V16.78C80.248 18.52 80.152 20.92 79.456 22.636C79.696 22.708 80.044 22.828 80.224 22.936C80.716 21.652 80.92 20.044 81.004 18.532H82.552V22.9H83.356V17.764H81.028C81.04 17.428 81.04 17.092 81.04 16.78V16.012ZM90.448 19.66H88.588V17.98H87.736V19.66H83.728V20.428H87.736V22.9H88.588V20.428H90.448V19.66Z" fill="black"/>
<path d="M24.02 13.252H26.072V15.172C26.072 16.072 26.24 16.408 27.02 16.408H27.788C28.004 16.408 28.244 16.396 28.364 16.348C28.352 16.144 28.316 15.808 28.304 15.58C28.148 15.616 27.932 15.64 27.776 15.64H27.08C26.912 15.64 26.888 15.532 26.888 15.196V12.412H23.216V13.732C23.216 14.584 23.012 15.556 21.752 16.3C21.896 16.432 22.196 16.768 22.316 16.96C23.708 16.108 24.02 14.824 24.02 13.756V13.252ZM19.1 18.064C19.124 17.572 19.124 17.104 19.124 16.684V16.024H20.84V18.064H19.1ZM20.84 13.216V15.208H19.124V13.216H20.84ZM21.644 12.4H18.32V16.696C18.32 18.448 18.26 20.836 17.456 22.516C17.66 22.588 18.02 22.792 18.176 22.924C18.716 21.784 18.956 20.296 19.052 18.892H20.84V21.772C20.84 21.928 20.78 21.988 20.636 22C20.492 22 20.036 22 19.52 21.988C19.628 22.216 19.724 22.6 19.76 22.816C20.528 22.816 20.972 22.804 21.26 22.66C21.548 22.504 21.644 22.24 21.644 21.784V12.4ZM26.72 18.064C26.324 18.976 25.748 19.756 25.04 20.38C24.332 19.732 23.78 18.94 23.384 18.064H26.72ZM27.296 17.188L27.152 17.224H22.1V18.064H22.784L22.604 18.136C23.036 19.204 23.636 20.128 24.392 20.896C23.576 21.472 22.628 21.88 21.656 22.132C21.812 22.324 22.004 22.66 22.088 22.912C23.144 22.588 24.14 22.12 25.016 21.46C25.868 22.132 26.864 22.636 28.004 22.948C28.112 22.708 28.352 22.36 28.532 22.168C27.452 21.916 26.504 21.484 25.688 20.908C26.636 20.032 27.38 18.88 27.824 17.416L27.296 17.188ZM32.12 18.868C31.628 19.996 30.776 21.112 29.9 21.844C30.116 21.988 30.488 22.264 30.656 22.432C31.52 21.616 32.432 20.356 32.996 19.096L32.12 18.868ZM39.44 17.908L39.452 17.044H35.984V15.292H35.096V17.044H32.264C32.828 16.264 33.404 15.352 33.932 14.392H39.944V13.54H34.388C34.604 13.132 34.808 12.7 34.988 12.292L34.064 11.896C33.836 12.448 33.584 13.012 33.308 13.54H29.972V14.392H32.864C32.384 15.256 31.94 15.952 31.736 16.228C31.364 16.756 31.112 17.092 30.836 17.164C30.956 17.416 31.112 17.884 31.172 18.088C31.28 17.968 31.748 17.908 32.456 17.908H35.096V21.688C35.096 21.856 35.048 21.904 34.856 21.916C34.664 21.928 34.028 21.928 33.332 21.904C33.476 22.156 33.632 22.564 33.668 22.816C34.52 22.816 35.132 22.792 35.504 22.636C35.864 22.492 35.984 22.228 35.984 21.7V17.908H39.44ZM36.968 19.216C37.904 20.152 38.972 21.46 39.44 22.276L40.244 21.844C39.74 21.004 38.636 19.744 37.7 18.844L36.968 19.216ZM44 16.168C44.48 16.168 44.912 15.82 44.912 15.28C44.912 14.728 44.48 14.368 44 14.368C43.52 14.368 43.1 14.728 43.1 15.28C43.1 15.82 43.52 16.168 44 16.168ZM44 22.048C44.48 22.048 44.912 21.688 44.912 21.148C44.912 20.596 44.48 20.248 44 20.248C43.52 20.248 43.1 20.596 43.1 21.148C43.1 21.688 43.52 22.048 44 22.048Z" fill="#999999"/>
<path d="M18.056 38H22.88V37.088H21.116V29.192H20.276C19.796 29.48 19.232 29.684 18.452 29.828V30.524H20.012V37.088H18.056V38ZM26.8242 38.156C28.3843 38.156 29.6443 37.22 29.6443 35.648C29.6443 34.448 28.8163 33.656 27.7843 33.416V33.368C28.7083 33.02 29.3443 32.312 29.3443 31.244C29.3443 29.852 28.2643 29.036 26.7883 29.036C25.7683 29.036 24.9883 29.48 24.3283 30.092L24.9163 30.788C25.4083 30.284 26.0323 29.936 26.7402 29.936C27.6523 29.936 28.2283 30.488 28.2283 31.328C28.2283 32.276 27.6043 33.008 25.7923 33.008V33.848C27.8203 33.848 28.5283 34.556 28.5283 35.6C28.5283 36.62 27.7843 37.244 26.7402 37.244C25.7443 37.244 25.0723 36.776 24.5563 36.236L24.0043 36.956C24.5803 37.58 25.4443 38.156 26.8242 38.156ZM33.4805 38.156C35.0405 38.156 36.3005 37.22 36.3005 35.648C36.3005 34.448 35.4725 33.656 34.4405 33.416V33.368C35.3645 33.02 36.0005 32.312 36.0005 31.244C36.0005 29.852 34.9205 29.036 33.4445 29.036C32.4245 29.036 31.6445 29.48 30.9845 30.092L31.5725 30.788C32.0645 30.284 32.6885 29.936 33.3965 29.936C34.3085 29.936 34.8845 30.488 34.8845 31.328C34.8845 32.276 34.2605 33.008 32.4485 33.008V33.848C34.4765 33.848 35.1845 34.556 35.1845 35.6C35.1845 36.62 34.4405 37.244 33.3965 37.244C32.4005 37.244 31.7285 36.776 31.2125 36.236L30.6605 36.956C31.2365 37.58 32.1005 38.156 33.4805 38.156ZM38.3488 34.7L40.3528 31.7C40.6048 31.268 40.8448 30.836 41.0608 30.404H41.1088C41.0848 30.86 41.0488 31.568 41.0488 32V34.7H38.3488ZM41.0488 38H42.0808V35.576H43.2448V34.7H42.0808V29.192H40.8688L37.2088 34.856V35.576H41.0488V38ZM45.005 34.7L47.009 31.7C47.261 31.268 47.501 30.836 47.717 30.404H47.765C47.741 30.86 47.705 31.568 47.705 32V34.7H45.005ZM47.705 38H48.737V35.576H49.901V34.7H48.737V29.192H47.525L43.865 34.856V35.576H47.705V38ZM53.4133 38.156C54.9013 38.156 56.2933 37.064 56.2933 35.132C56.2933 33.2 55.1053 32.336 53.6413 32.336C53.1133 32.336 52.7293 32.468 52.3333 32.684L52.5493 30.14H55.8733V29.192H51.5893L51.3133 33.32L51.9013 33.68C52.4053 33.344 52.7773 33.164 53.3652 33.164C54.4693 33.164 55.1893 33.908 55.1893 35.168C55.1893 36.452 54.3493 37.244 53.3173 37.244C52.2973 37.244 51.6613 36.776 51.1573 36.272L50.6173 36.992C51.2053 37.58 52.0452 38.156 53.4133 38.156ZM60.0695 38.156C61.5575 38.156 62.9495 37.064 62.9495 35.132C62.9495 33.2 61.7615 32.336 60.2975 32.336C59.7695 32.336 59.3855 32.468 58.9895 32.684L59.2055 30.14H62.5295V29.192H58.2455L57.9695 33.32L58.5575 33.68C59.0615 33.344 59.4335 33.164 60.0215 33.164C61.1255 33.164 61.8455 33.908 61.8455 35.168C61.8455 36.452 61.0055 37.244 59.9735 37.244C58.9535 37.244 58.3175 36.776 57.8135 36.272L57.2735 36.992C57.8615 37.58 58.7015 38.156 60.0695 38.156ZM67.1098 33.356C68.1778 33.356 68.7058 34.112 68.7058 35.3C68.7058 36.5 68.0458 37.304 67.2058 37.304C66.1018 37.304 65.4418 36.308 65.3098 34.484C65.8498 33.68 66.5578 33.356 67.1098 33.356ZM67.2058 38.156C68.5738 38.156 69.7258 37.004 69.7258 35.3C69.7258 33.464 68.7778 32.54 67.2898 32.54C66.5938 32.54 65.8258 32.948 65.2858 33.608C65.3338 30.872 66.3538 29.948 67.5538 29.948C68.0938 29.948 68.6218 30.2 68.9698 30.62L69.5698 29.936C69.0898 29.42 68.4298 29.036 67.5178 29.036C65.8138 29.036 64.2658 30.356 64.2658 33.8C64.2658 36.704 65.5138 38.156 67.2058 38.156ZM73.766 33.356C74.834 33.356 75.362 34.112 75.362 35.3C75.362 36.5 74.702 37.304 73.862 37.304C72.758 37.304 72.098 36.308 71.966 34.484C72.506 33.68 73.214 33.356 73.766 33.356ZM73.862 38.156C75.23 38.156 76.382 37.004 76.382 35.3C76.382 33.464 75.434 32.54 73.946 32.54C73.25 32.54 72.482 32.948 71.942 33.608C71.99 30.872 73.01 29.948 74.21 29.948C74.75 29.948 75.278 30.2 75.626 30.62L76.226 29.936C75.746 29.42 75.086 29.036 74.174 29.036C72.47 29.036 70.922 30.356 70.922 33.8C70.922 36.704 72.17 38.156 73.862 38.156ZM79.2823 38H80.4223C80.5543 34.556 80.9383 32.504 83.0023 29.864V29.192H77.4943V30.14H81.7543C80.0383 32.54 79.4263 34.664 79.2823 38ZM86.7305 38.156C88.2905 38.156 89.5505 37.22 89.5505 35.648C89.5505 34.448 88.7225 33.656 87.6905 33.416V33.368C88.6145 33.02 89.2505 32.312 89.2505 31.244C89.2505 29.852 88.1705 29.036 86.6945 29.036C85.6745 29.036 84.8945 29.48 84.2345 30.092L84.8225 30.788C85.3145 30.284 85.9385 29.936 86.6465 29.936C87.5585 29.936 88.1345 30.488 88.1345 31.328C88.1345 32.276 87.5105 33.008 85.6985 33.008V33.848C87.7265 33.848 88.4345 34.556 88.4345 35.6C88.4345 36.62 87.6905 37.244 86.6465 37.244C85.6505 37.244 84.9785 36.776 84.4625 36.236L83.9105 36.956C84.4865 37.58 85.3505 38.156 86.7305 38.156Z" fill="black"/>
<rect x="460.5" y="9.5" width="144" height="43" fill="white" stroke="#CCCCCC"/>
<path d="M515.78 17.436L515.636 17.472H512.984V27.924H513.8V18.288H515.324C515.096 19.092 514.76 20.184 514.448 21.048C515.228 21.972 515.432 22.776 515.432 23.412C515.432 23.772 515.372 24.096 515.192 24.228C515.12 24.3 514.988 24.324 514.844 24.324C514.676 24.348 514.472 24.336 514.22 24.312C514.352 24.552 514.436 24.9 514.448 25.14C514.688 25.152 514.976 25.14 515.192 25.116C515.432 25.08 515.636 25.02 515.804 24.9C516.128 24.672 516.272 24.144 516.26 23.508C516.26 22.776 516.08 21.924 515.264 20.952C515.648 19.992 516.056 18.78 516.38 17.808L515.78 17.436ZM517.508 24.06C517.196 24.948 516.584 26.052 515.936 26.772C516.128 26.892 516.416 27.132 516.56 27.288C517.268 26.508 517.928 25.32 518.348 24.3L517.508 24.06ZM522.896 23.028L522.908 22.212H520.292V20.376H519.428V22.212H517.784C518.18 21.384 518.576 20.412 518.924 19.38H523.304V18.552H519.176C519.332 18.036 519.476 17.52 519.608 17.016L518.636 16.86C518.54 17.424 518.396 18 518.24 18.552H516.404V19.38H518.012C517.712 20.304 517.424 21.06 517.292 21.36C517.052 21.912 516.86 22.284 516.632 22.344C516.752 22.596 516.896 23.016 516.944 23.208C517.052 23.1 517.436 23.028 518 23.028H519.428V26.832C519.428 27 519.38 27.036 519.224 27.048C519.08 27.048 518.564 27.06 517.988 27.036C518.108 27.288 518.216 27.648 518.252 27.9C519.044 27.9 519.56 27.876 519.872 27.732C520.196 27.576 520.292 27.336 520.292 26.844V23.028H522.896ZM521.288 24.348C521.816 25.248 522.452 26.46 522.764 27.18L523.52 26.784C523.196 26.088 522.536 24.9 522.008 24.012L521.288 24.348ZM532.508 26.88C532.052 26.88 531.968 26.82 531.968 26.46V22.944H535.244V22.08H530.444V19.68H534.38V18.828H530.444V16.968H529.556V18.828H527.432C527.6 18.348 527.756 17.88 527.876 17.424L526.976 17.244C526.688 18.492 526.088 20.076 525.26 21.084C525.488 21.18 525.836 21.36 526.04 21.504C526.436 21 526.796 20.364 527.084 19.68H529.556V22.08H524.78V22.944H527.888C527.684 24.912 527.144 26.448 524.612 27.228C524.816 27.396 525.08 27.756 525.176 27.984C527.9 27.036 528.572 25.284 528.812 22.944H531.08V26.46C531.08 27.432 531.344 27.732 532.4 27.732H534.104C535.052 27.732 535.316 27.264 535.412 25.452C535.16 25.392 534.788 25.236 534.584 25.08C534.536 26.628 534.464 26.88 534.032 26.88H532.508ZM542.048 21.996V20.736H543.788C543.764 21.144 543.692 21.576 543.512 21.996H542.048ZM542.048 18.816H543.788V20.064H542.048V18.816ZM546.296 20.064H544.556V18.816H546.296V20.064ZM546.296 21.996H544.352C544.484 21.576 544.532 21.156 544.556 20.736H546.296V21.996ZM547.112 22.704V18.108H544.028C544.208 17.796 544.412 17.448 544.592 17.124L543.584 16.92C543.488 17.256 543.308 17.712 543.128 18.108H541.244V22.704H543.092C542.708 23.196 542.096 23.664 541.172 24.06C541.352 24.18 541.64 24.408 541.76 24.564C542.948 24.06 543.644 23.4 544.04 22.704H547.112ZM538.04 21.012H540.968V20.232H539.972V16.968H539.192V20.232H538.04V17.208H537.248V21.78C537.248 23.52 537.152 25.92 536.456 27.636C536.696 27.708 537.044 27.828 537.224 27.936C537.716 26.652 537.92 25.044 538.004 23.532H539.552V27.9H540.356V22.764H538.028C538.04 22.428 538.04 22.092 538.04 21.78V21.012ZM547.448 24.66H545.588V22.98H544.736V24.66H540.728V25.428H544.736V27.9H545.588V25.428H547.448V24.66Z" fill="black"/>
<path d="M470.056 43H474.88V42.088H473.116V34.192H472.276C471.796 34.48 471.232 34.684 470.452 34.828V35.524H472.012V42.088H470.056V43ZM478.824 43.156C480.384 43.156 481.644 42.22 481.644 40.648C481.644 39.448 480.816 38.656 479.784 38.416V38.368C480.708 38.02 481.344 37.312 481.344 36.244C481.344 34.852 480.264 34.036 478.788 34.036C477.768 34.036 476.988 34.48 476.328 35.092L476.916 35.788C477.408 35.284 478.032 34.936 478.74 34.936C479.652 34.936 480.228 35.488 480.228 36.328C480.228 37.276 479.604 38.008 477.792 38.008V38.848C479.82 38.848 480.528 39.556 480.528 40.6C480.528 41.62 479.784 42.244 478.74 42.244C477.744 42.244 477.072 41.776 476.556 41.236L476.004 41.956C476.58 42.58 477.444 43.156 478.824 43.156ZM485.48 43.156C487.041 43.156 488.301 42.22 488.301 40.648C488.301 39.448 487.473 38.656 486.441 38.416V38.368C487.365 38.02 488.001 37.312 488.001 36.244C488.001 34.852 486.921 34.036 485.445 34.036C484.425 34.036 483.645 34.48 482.985 35.092L483.573 35.788C484.065 35.284 484.689 34.936 485.396 34.936C486.309 34.936 486.885 35.488 486.885 36.328C486.885 37.276 486.261 38.008 484.449 38.008V38.848C486.477 38.848 487.185 39.556 487.185 40.6C487.185 41.62 486.441 42.244 485.396 42.244C484.401 42.244 483.729 41.776 483.213 41.236L482.661 41.956C483.237 42.58 484.101 43.156 485.48 43.156ZM490.349 39.7L492.353 36.7C492.605 36.268 492.845 35.836 493.061 35.404H493.109C493.085 35.86 493.049 36.568 493.049 37V39.7H490.349ZM493.049 43H494.081V40.576H495.245V39.7H494.081V34.192H492.869L489.209 39.856V40.576H493.049V43ZM497.005 39.7L499.009 36.7C499.261 36.268 499.501 35.836 499.717 35.404H499.765C499.741 35.86 499.705 36.568 499.705 37V39.7H497.005ZM499.705 43H500.737V40.576H501.901V39.7H500.737V34.192H499.525L495.865 39.856V40.576H499.705V43ZM505.413 43.156C506.901 43.156 508.293 42.064 508.293 40.132C508.293 38.2 507.105 37.336 505.641 37.336C505.113 37.336 504.729 37.468 504.333 37.684L504.549 35.14H507.873V34.192H503.589L503.313 38.32L503.901 38.68C504.405 38.344 504.777 38.164 505.365 38.164C506.469 38.164 507.189 38.908 507.189 40.168C507.189 41.452 506.349 42.244 505.317 42.244C504.297 42.244 503.661 41.776 503.157 41.272L502.617 41.992C503.205 42.58 504.045 43.156 505.413 43.156ZM512.07 43.156C513.558 43.156 514.95 42.064 514.95 40.132C514.95 38.2 513.762 37.336 512.298 37.336C511.77 37.336 511.386 37.468 510.99 37.684L511.206 35.14H514.53V34.192H510.246L509.97 38.32L510.558 38.68C511.062 38.344 511.434 38.164 512.021 38.164C513.126 38.164 513.846 38.908 513.846 40.168C513.846 41.452 513.006 42.244 511.974 42.244C510.954 42.244 510.318 41.776 509.814 41.272L509.274 41.992C509.862 42.58 510.701 43.156 512.07 43.156ZM519.11 38.356C520.178 38.356 520.706 39.112 520.706 40.3C520.706 41.5 520.046 42.304 519.206 42.304C518.102 42.304 517.442 41.308 517.31 39.484C517.85 38.68 518.558 38.356 519.11 38.356ZM519.206 43.156C520.574 43.156 521.726 42.004 521.726 40.3C521.726 38.464 520.778 37.54 519.29 37.54C518.594 37.54 517.826 37.948 517.286 38.608C517.334 35.872 518.354 34.948 519.554 34.948C520.094 34.948 520.622 35.2 520.97 35.62L521.57 34.936C521.09 34.42 520.43 34.036 519.518 34.036C517.814 34.036 516.266 35.356 516.266 38.8C516.266 41.704 517.514 43.156 519.206 43.156ZM525.766 38.356C526.834 38.356 527.362 39.112 527.362 40.3C527.362 41.5 526.702 42.304 525.862 42.304C524.758 42.304 524.098 41.308 523.966 39.484C524.506 38.68 525.214 38.356 525.766 38.356ZM525.862 43.156C527.23 43.156 528.382 42.004 528.382 40.3C528.382 38.464 527.434 37.54 525.946 37.54C525.25 37.54 524.482 37.948 523.942 38.608C523.99 35.872 525.01 34.948 526.21 34.948C526.75 34.948 527.278 35.2 527.626 35.62L528.226 34.936C527.746 34.42 527.086 34.036 526.174 34.036C524.47 34.036 522.922 35.356 522.922 38.8C522.922 41.704 524.17 43.156 525.862 43.156ZM531.282 43H532.422C532.554 39.556 532.938 37.504 535.002 34.864V34.192H529.494V35.14H533.754C532.038 37.54 531.426 39.664 531.282 43ZM538.73 43.156C540.291 43.156 541.551 42.22 541.551 40.648C541.551 39.448 540.723 38.656 539.691 38.416V38.368C540.615 38.02 541.251 37.312 541.251 36.244C541.251 34.852 540.171 34.036 538.695 34.036C537.675 34.036 536.895 34.48 536.235 35.092L536.823 35.788C537.315 35.284 537.939 34.936 538.646 34.936C539.559 34.936 540.135 35.488 540.135 36.328C540.135 37.276 539.511 38.008 537.699 38.008V38.848C539.727 38.848 540.435 39.556 540.435 40.6C540.435 41.62 539.691 42.244 538.646 42.244C537.651 42.244 536.979 41.776 536.463 41.236L535.911 41.956C536.487 42.58 537.351 43.156 538.73 43.156Z" fill="black"/>
<path d="M240.88 174.316H242.02V173.5H240.88V170.956H240.064V173.5H238.66V174.316H240.016C239.716 175.948 239.092 177.88 238.432 178.924C238.576 179.116 238.78 179.44 238.888 179.68C239.32 178.972 239.74 177.88 240.064 176.728V181.912H240.88V175.984C241.18 176.572 241.54 177.292 241.696 177.688L242.188 176.968C242.008 176.62 241.168 175.228 240.88 174.784V174.316ZM249.232 173.068V172.264H244.348C244.504 171.904 244.636 171.52 244.744 171.136L243.928 170.944C243.58 172.252 242.968 173.524 242.212 174.352C242.392 174.472 242.728 174.736 242.872 174.88C243.28 174.388 243.664 173.764 244.012 173.068H249.232ZM244.948 175.552C245.452 175.876 246.148 176.38 246.52 176.68L247.012 176.176C246.64 175.9 245.956 175.432 245.428 175.108L244.948 175.552ZM246.808 178.828C246.46 178.54 245.764 178.024 245.248 177.688L244.768 178.12C245.26 178.468 245.944 178.996 246.316 179.32L246.808 178.828ZM243.724 179.524C243.808 178.948 243.904 178.276 243.988 177.568H247.792C247.756 178.384 247.708 179.032 247.66 179.524H243.724ZM247.9 174.964C247.876 175.648 247.852 176.248 247.828 176.788H244.084C244.156 176.164 244.216 175.552 244.288 174.964H247.9ZM249.472 177.568V176.788H248.632C248.668 176.152 248.692 175.444 248.716 174.628C248.716 174.52 248.728 174.208 248.728 174.208H243.544C243.484 174.988 243.388 175.888 243.268 176.788H242.296V177.568H243.172C243.04 178.588 242.884 179.56 242.764 180.28H247.564C247.504 180.628 247.432 180.844 247.348 180.94C247.264 181.096 247.156 181.12 246.964 181.108C246.76 181.108 246.304 181.108 245.8 181.072C245.932 181.276 246.004 181.6 246.016 181.828C246.52 181.852 247.012 181.864 247.3 181.828C247.648 181.792 247.876 181.696 248.068 181.42C248.212 181.228 248.32 180.892 248.404 180.28H249.316V179.524H248.476C248.524 179.008 248.56 178.372 248.608 177.568H249.472ZM259.768 173.428V180.088H256.444V171.1H255.532V180.088H252.244V173.44H251.332V180.988H259.768V181.876H260.68V173.428H259.768ZM265.204 174.532C266.26 173.908 267.22 173.14 268.012 172.276C268.792 173.092 269.848 173.896 270.928 174.532H265.204ZM271.072 175.36V174.616C271.72 174.988 272.38 175.3 273.004 175.528C273.136 175.3 273.412 174.94 273.628 174.76C271.804 174.184 269.692 172.936 268.504 171.664C268.612 171.52 268.72 171.364 268.804 171.232L267.988 170.848C266.848 172.624 264.64 174.028 262.408 174.76C262.636 174.976 262.876 175.324 263.008 175.564C263.656 175.336 264.304 175.036 264.916 174.7V175.36H267.508V176.992H263.392V177.808H267.508V180.736H262.852V181.564H273.16V180.736H268.432V177.808H272.62V176.992H268.432V175.36H271.072ZM270.196 180.568C270.628 180.004 271.18 179.152 271.624 178.396L270.772 178.072C270.484 178.744 269.944 179.692 269.524 180.28L270.196 180.568ZM264.4 178.372C264.856 179.044 265.336 179.992 265.504 180.544L266.284 180.22C266.092 179.644 265.6 178.744 265.144 178.072L264.4 178.372ZM276.124 177.04C276.136 176.56 276.148 176.092 276.148 175.684V175.024H277.96V177.04H276.124ZM277.96 172.228V174.196H276.148V172.228H277.96ZM278.788 171.4H275.332V175.684C275.332 177.448 275.272 179.824 274.444 181.504C274.66 181.588 275.02 181.792 275.176 181.936C275.716 180.808 275.968 179.308 276.076 177.892H277.96V180.844C277.96 181.012 277.9 181.06 277.732 181.072C277.588 181.084 277.084 181.084 276.532 181.072C276.652 181.3 276.772 181.696 276.784 181.924C277.6 181.924 278.08 181.912 278.38 181.756C278.692 181.6 278.788 181.336 278.788 180.856V171.4ZM284.272 176.308C283.996 177.328 283.588 178.228 283.072 178.996C282.52 178.204 282.088 177.292 281.764 176.308H284.272ZM284.728 175.456L284.572 175.48H280.684V172.264H284.044V173.728C284.044 173.872 283.996 173.92 283.804 173.92C283.624 173.932 283 173.932 282.268 173.92C282.388 174.136 282.52 174.436 282.556 174.676C283.456 174.676 284.056 174.676 284.44 174.556C284.8 174.424 284.908 174.196 284.908 173.74V171.436H279.844V181.924H280.684V176.308H280.984C281.38 177.544 281.908 178.696 282.58 179.668C282.028 180.316 281.404 180.832 280.744 181.192C280.924 181.348 281.152 181.648 281.272 181.852C281.932 181.468 282.544 180.952 283.084 180.316C283.66 180.988 284.308 181.528 285.028 181.936C285.16 181.72 285.4 181.42 285.604 181.252C284.848 180.88 284.176 180.34 283.6 179.68C284.356 178.612 284.932 177.268 285.244 175.636L284.728 175.456ZM294.556 173.428C294.16 172.924 293.32 172.24 292.6 171.784L292.036 172.3C292.744 172.792 293.572 173.5 293.944 174.004L294.556 173.428ZM294.268 176.584C293.824 176.068 292.888 175.36 292.12 174.892L291.568 175.42C292.324 175.9 293.248 176.644 293.68 177.172L294.268 176.584ZM291.112 177.436C290.86 177.112 289.828 175.792 289.456 175.372V175.156H291.22V174.316H289.456V172.312C290.032 172.18 290.584 172.012 291.028 171.832L290.488 171.124C289.588 171.52 288.016 171.868 286.672 172.084C286.768 172.276 286.888 172.588 286.936 172.78C287.464 172.708 288.028 172.612 288.58 172.504V174.316H286.564V175.156H288.46C287.992 176.536 287.152 178.072 286.396 178.924C286.54 179.128 286.756 179.488 286.84 179.728C287.464 178.984 288.088 177.796 288.58 176.596V181.9H289.456V176.344C289.864 176.956 290.368 177.736 290.572 178.132L291.112 177.436ZM297.532 178.516L297.4 177.7L295.996 177.916V170.956H295.12V178.06L291.064 178.708L291.208 179.56L295.12 178.912V181.9H295.996V178.768L297.532 178.516ZM302.368 176.2C301.936 176.332 301.48 176.464 301.048 176.584V174.208H302.368V173.368H301.048V170.968H300.172V173.368H298.636V174.208H300.172V176.824C299.536 177.004 298.96 177.148 298.48 177.256L298.732 178.132L300.172 177.712V180.844C300.172 181.012 300.1 181.072 299.932 181.072C299.788 181.084 299.272 181.084 298.696 181.072C298.816 181.312 298.948 181.66 298.972 181.888C299.8 181.9 300.304 181.876 300.604 181.732C300.916 181.588 301.048 181.348 301.048 180.844V177.448C301.516 177.304 302.008 177.16 302.488 177.016L302.368 176.2ZM307.72 176.284C307.288 177.376 306.616 178.3 305.788 179.044C305.032 178.276 304.432 177.328 304.024 176.284H307.72ZM308.284 175.42L308.14 175.456H306.232V173.668H309.1V172.84H306.232V170.956H305.356V172.84H302.548V173.668H305.356V175.456H302.788V176.284H303.184L303.148 176.296C303.616 177.58 304.276 178.684 305.116 179.584C304.144 180.292 303.028 180.796 301.864 181.108C302.032 181.3 302.248 181.672 302.344 181.912C303.568 181.528 304.732 180.976 305.752 180.196C306.64 180.976 307.708 181.552 308.956 181.936C309.088 181.696 309.34 181.348 309.532 181.168C308.332 180.844 307.3 180.328 306.436 179.62C307.516 178.624 308.368 177.316 308.872 175.672L308.284 175.42ZM318.964 176.752H313.96V175.54H318.964V176.752ZM313.96 178.78V177.52H318.964V178.78H313.96ZM321.244 173.344V172.504H315.136C315.316 172.072 315.46 171.616 315.604 171.172L314.716 170.956C314.572 171.472 314.392 171.988 314.188 172.504H310.804V173.344H313.816C313.048 174.928 311.956 176.368 310.516 177.34C310.696 177.508 310.972 177.832 311.092 178.024C311.848 177.496 312.508 176.848 313.084 176.14V181.912H313.96V179.548H318.964V180.796C318.964 180.976 318.892 181.036 318.688 181.048C318.472 181.048 317.752 181.06 316.96 181.024C317.08 181.276 317.212 181.636 317.248 181.9C318.268 181.9 318.94 181.888 319.336 181.744C319.72 181.6 319.84 181.336 319.84 180.796V174.736H314.056C314.32 174.292 314.56 173.812 314.788 173.344H321.244ZM326.14 171.412L326.008 171.448H323.14V181.9H323.932V172.264H325.672C325.432 173.056 325.072 174.088 324.724 174.952C325.588 175.912 325.804 176.74 325.804 177.388C325.804 177.748 325.732 178.084 325.552 178.216C325.456 178.288 325.324 178.312 325.18 178.324C324.988 178.348 324.76 178.336 324.484 178.312C324.616 178.54 324.7 178.876 324.712 179.104C324.964 179.116 325.276 179.116 325.504 179.08C325.744 179.056 325.972 178.984 326.14 178.852C326.464 178.624 326.608 178.096 326.608 177.472C326.608 176.728 326.392 175.852 325.528 174.856C325.936 173.908 326.368 172.732 326.728 171.76L326.14 171.412ZM328.18 174.46H331.696V175.948H328.18V174.46ZM331.696 172.276V173.716H328.18V172.276H331.696ZM332.692 177.112C332.2 177.544 331.444 178.108 330.82 178.528C330.52 177.988 330.292 177.376 330.112 176.728H332.56V171.484H327.316V180.352C327.316 180.844 327.064 181.096 326.872 181.192C327.016 181.36 327.208 181.732 327.268 181.924C327.508 181.768 327.868 181.648 330.34 180.976C330.304 180.784 330.292 180.424 330.292 180.16L328.18 180.676V176.728H329.332C329.932 179.104 331.048 180.94 332.92 181.828C333.064 181.6 333.34 181.24 333.532 181.072C332.572 180.676 331.804 180.016 331.216 179.164C331.876 178.768 332.668 178.24 333.28 177.736L332.692 177.112ZM337.912 171.316C337.204 173.104 336.004 174.82 334.66 175.876C334.888 176.02 335.296 176.332 335.488 176.512C336.784 175.336 338.056 173.524 338.86 171.58L337.912 171.316ZM341.332 177.712C341.8 178.3 342.316 178.996 342.796 179.668L337.216 180.004C338.392 178.612 339.568 176.836 340.552 175.024L339.592 174.592C338.632 176.584 337.18 178.66 336.712 179.188C336.256 179.764 335.932 180.124 335.62 180.196C335.752 180.448 335.92 180.94 335.968 181.132C336.412 180.964 337.06 180.928 343.36 180.496C343.672 180.988 343.96 181.456 344.152 181.84L345.016 181.36C344.428 180.28 343.204 178.6 342.16 177.328L341.332 177.712ZM341.092 171.568C342.016 173.368 343.54 175.372 344.776 176.512C344.956 176.272 345.292 175.936 345.52 175.756C344.284 174.76 342.76 172.864 341.968 171.232L341.092 171.568ZM352.66 176.716V178.948H348.808V176.716H352.66ZM353.536 179.74V175.924H347.932V180.616H348.808V179.74H353.536ZM354.352 173.836H347.176V174.64H354.352V173.836ZM356.62 171.736H347.092V172.588H355.72V180.592C355.72 180.82 355.66 180.88 355.432 180.892C355.192 180.904 354.364 180.904 353.536 180.88C353.68 181.132 353.812 181.576 353.848 181.84C354.916 181.84 355.66 181.828 356.08 181.672C356.488 181.516 356.62 181.204 356.62 180.592V171.736Z" fill="white"/>
<path d="M128.021 112.317L116.763 112.317L122.392 102.567L128.021 112.317Z" fill="#1790FF"/>
<path d="M492.021 110.317L480.763 110.317L486.392 100.567L492.021 110.317Z" fill="#CCCCCC"/>
<path d="M472.54 19.236H473.416V18.516H476.536V19.176H477.412V18.516H480.244V17.784H477.412V16.968H476.536V17.784H473.416V16.968H472.54V17.784H469.756V18.516H472.54V19.236ZM471.796 24.336V23.604H474.52V24.336H471.796ZM471.796 22.392H474.52V23.1H471.796V22.392ZM478.204 22.392V23.1H475.396V22.392H478.204ZM478.204 24.336H475.396V23.604H478.204V24.336ZM475.396 26.868V26.136H479.464V25.512H475.396V24.876H479.08V21.84H475.396V21.264H480.256V20.616H475.396V19.932C476.824 19.86 478.168 19.764 479.248 19.62L478.684 19.056C476.8 19.296 473.392 19.452 470.548 19.476C470.608 19.632 470.68 19.896 470.692 20.064C471.928 20.064 473.236 20.028 474.52 19.968V20.616H469.768V21.264H474.52V21.84H470.956V24.876H474.52V25.512H470.584V26.136H474.52V26.868H469.684V27.54H480.328V26.868H475.396ZM490.288 25.416H487.408V24.516H490.288V25.416ZM487.408 22.968H490.288V23.808H487.408V22.968ZM483.94 20.844V19.98H486.52V20.844H483.94ZM490.096 19.98V20.844H487.408V19.98H490.096ZM492.412 23.808H491.176V22.308H487.408V21.468H490.984V19.356H487.408V18.66H492.184V17.928H487.408V16.968H486.52V17.928H481.84V18.66H486.52V19.356H483.088V21.468H486.52V22.308H482.752V22.968H486.52V23.808H481.612V24.516H486.52V25.416H482.644V26.1H486.52V26.928C486.52 27.132 486.448 27.204 486.22 27.216C486.016 27.216 485.296 27.228 484.576 27.204C484.696 27.408 484.84 27.732 484.888 27.96C485.884 27.96 486.508 27.948 486.88 27.816C487.24 27.684 487.408 27.48 487.408 26.928V26.1H490.288V26.64H491.176V24.516H492.412V23.808ZM502.204 17.232C501.16 18.468 499.432 19.608 497.752 20.304C497.968 20.472 498.328 20.82 498.472 21.012C500.104 20.22 501.916 18.996 503.092 17.616L502.204 17.232ZM504.28 22.512V21.636H496.924V17.04H496V21.636H493.708V22.512H496V26.328C496 26.796 495.712 26.964 495.52 27.06C495.664 27.252 495.82 27.624 495.88 27.852C496.168 27.66 496.612 27.516 499.876 26.652C499.828 26.448 499.792 26.076 499.792 25.812L496.924 26.52V22.512H498.796C499.756 24.984 501.448 26.748 503.932 27.564C504.064 27.312 504.328 26.928 504.556 26.748C502.264 26.088 500.596 24.564 499.708 22.512H504.28ZM508 21.168C508.48 21.168 508.912 20.82 508.912 20.28C508.912 19.728 508.48 19.368 508 19.368C507.52 19.368 507.1 19.728 507.1 20.28C507.1 20.82 507.52 21.168 508 21.168ZM508 27.048C508.48 27.048 508.912 26.688 508.912 26.148C508.912 25.596 508.48 25.248 508 25.248C507.52 25.248 507.1 25.596 507.1 26.148C507.1 26.688 507.52 27.048 508 27.048Z" fill="#999999"/>
<defs>
<filter id="filter0_d" x="0" y="0" width="161" height="60" filterUnits="userSpaceOnUse" color-interpolation-filters="sRGB">
<feFlood flood-opacity="0" result="BackgroundImageFix"/>
<feColorMatrix in="SourceAlpha" type="matrix" values="0 0 0 0 0 0 0 0 0 0 0 0 0 0 0 0 0 0 127 0"/>
<feOffset dy="4"/>
<feGaussianBlur stdDeviation="4"/>
<feColorMatrix type="matrix" values="0 0 0 0 0 0 0 0 0 0 0 0 0 0 0 0 0 0 0.1 0"/>
<feBlend mode="normal" in2="BackgroundImageFix" result="effect1_dropShadow"/>
<feBlend mode="normal" in="SourceGraphic" in2="effect1_dropShadow" result="shape"/>
</filter>
</defs>
</svg>
