<svg width="840" height="183" viewBox="0 0 840 183" fill="none" xmlns="http://www.w3.org/2000/svg">
<rect x="332.5" y="0.5" width="144" height="43" fill="#1790FF" stroke="#1790FF"/>
<g filter="url(#filter0_d)">
<rect x="8" y="138" width="258" height="33" fill="white"/>
<rect x="8.5" y="138.5" width="257" height="32" stroke="#1790FF"/>
</g>
<path d="M344.78 8.436L344.636 8.472H341.984V18.924H342.8V9.288H344.324C344.096 10.092 343.76 11.184 343.448 12.048C344.228 12.972 344.432 13.776 344.432 14.412C344.432 14.772 344.372 15.096 344.192 15.228C344.12 15.3 343.988 15.324 343.844 15.324C343.676 15.348 343.472 15.336 343.22 15.312C343.352 15.552 343.436 15.9 343.448 16.14C343.688 16.152 343.976 16.14 344.192 16.116C344.432 16.08 344.636 16.02 344.804 15.9C345.128 15.672 345.272 15.144 345.26 14.508C345.26 13.776 345.08 12.924 344.264 11.952C344.648 10.992 345.056 9.78 345.38 8.808L344.78 8.436ZM346.508 15.06C346.196 15.948 345.584 17.052 344.936 17.772C345.128 17.892 345.416 18.132 345.56 18.288C346.268 17.508 346.928 16.32 347.348 15.3L346.508 15.06ZM351.896 14.028L351.908 13.212H349.292V11.376H348.428V13.212H346.784C347.18 12.384 347.576 11.412 347.924 10.38H352.304V9.552H348.176C348.332 9.036 348.476 8.52 348.608 8.016L347.636 7.86C347.54 8.424 347.396 9 347.24 9.552H345.404V10.38H347.012C346.712 11.304 346.424 12.06 346.292 12.36C346.052 12.912 345.86 13.284 345.632 13.344C345.752 13.596 345.896 14.016 345.944 14.208C346.052 14.1 346.436 14.028 347 14.028H348.428V17.832C348.428 18 348.38 18.036 348.224 18.048C348.08 18.048 347.564 18.06 346.988 18.036C347.108 18.288 347.216 18.648 347.252 18.9C348.044 18.9 348.56 18.876 348.872 18.732C349.196 18.576 349.292 18.336 349.292 17.844V14.028H351.896ZM350.288 15.348C350.816 16.248 351.452 17.46 351.764 18.18L352.52 17.784C352.196 17.088 351.536 15.9 351.008 15.012L350.288 15.348ZM361.508 17.88C361.052 17.88 360.968 17.82 360.968 17.46V13.944H364.244V13.08H359.444V10.68H363.38V9.828H359.444V7.968H358.556V9.828H356.432C356.6 9.348 356.756 8.88 356.876 8.424L355.976 8.244C355.688 9.492 355.088 11.076 354.26 12.084C354.488 12.18 354.836 12.36 355.04 12.504C355.436 12 355.796 11.364 356.084 10.68H358.556V13.08H353.78V13.944H356.888C356.684 15.912 356.144 17.448 353.612 18.228C353.816 18.396 354.08 18.756 354.176 18.984C356.9 18.036 357.572 16.284 357.812 13.944H360.08V17.46C360.08 18.432 360.344 18.732 361.4 18.732H363.104C364.052 18.732 364.316 18.264 364.412 16.452C364.16 16.392 363.788 16.236 363.584 16.08C363.536 17.628 363.464 17.88 363.032 17.88H361.508ZM371.048 12.996V11.736H372.788C372.764 12.144 372.692 12.576 372.512 12.996H371.048ZM371.048 9.816H372.788V11.064H371.048V9.816ZM375.296 11.064H373.556V9.816H375.296V11.064ZM375.296 12.996H373.352C373.484 12.576 373.532 12.156 373.556 11.736H375.296V12.996ZM376.112 13.704V9.108H373.028C373.208 8.796 373.412 8.448 373.592 8.124L372.584 7.92C372.488 8.256 372.308 8.712 372.128 9.108H370.244V13.704H372.092C371.708 14.196 371.096 14.664 370.172 15.06C370.352 15.18 370.64 15.408 370.76 15.564C371.948 15.06 372.644 14.4 373.04 13.704H376.112ZM367.04 12.012H369.968V11.232H368.972V7.968H368.192V11.232H367.04V8.208H366.248V12.78C366.248 14.52 366.152 16.92 365.456 18.636C365.696 18.708 366.044 18.828 366.224 18.936C366.716 17.652 366.92 16.044 367.004 14.532H368.552V18.9H369.356V13.764H367.028C367.04 13.428 367.04 13.092 367.04 12.78V12.012ZM376.448 15.66H374.588V13.98H373.736V15.66H369.728V16.428H373.736V18.9H374.588V16.428H376.448V15.66Z" fill="white"/>
<path d="M342.056 34H346.88V33.088H345.116V25.192H344.276C343.796 25.48 343.232 25.684 342.452 25.828V26.524H344.012V33.088H342.056V34ZM350.824 34.156C352.384 34.156 353.644 33.22 353.644 31.648C353.644 30.448 352.816 29.656 351.784 29.416V29.368C352.708 29.02 353.344 28.312 353.344 27.244C353.344 25.852 352.264 25.036 350.788 25.036C349.768 25.036 348.988 25.48 348.328 26.092L348.916 26.788C349.408 26.284 350.032 25.936 350.74 25.936C351.652 25.936 352.228 26.488 352.228 27.328C352.228 28.276 351.604 29.008 349.792 29.008V29.848C351.82 29.848 352.528 30.556 352.528 31.6C352.528 32.62 351.784 33.244 350.74 33.244C349.744 33.244 349.072 32.776 348.556 32.236L348.004 32.956C348.58 33.58 349.444 34.156 350.824 34.156ZM357.48 34.156C359.041 34.156 360.301 33.22 360.301 31.648C360.301 30.448 359.473 29.656 358.441 29.416V29.368C359.365 29.02 360.001 28.312 360.001 27.244C360.001 25.852 358.921 25.036 357.445 25.036C356.425 25.036 355.645 25.48 354.985 26.092L355.573 26.788C356.065 26.284 356.689 25.936 357.396 25.936C358.309 25.936 358.885 26.488 358.885 27.328C358.885 28.276 358.261 29.008 356.449 29.008V29.848C358.477 29.848 359.185 30.556 359.185 31.6C359.185 32.62 358.441 33.244 357.396 33.244C356.401 33.244 355.729 32.776 355.213 32.236L354.661 32.956C355.237 33.58 356.101 34.156 357.48 34.156ZM362.349 30.7L364.353 27.7C364.605 27.268 364.845 26.836 365.061 26.404H365.109C365.085 26.86 365.049 27.568 365.049 28V30.7H362.349ZM365.049 34H366.081V31.576H367.245V30.7H366.081V25.192H364.869L361.209 30.856V31.576H365.049V34ZM369.005 30.7L371.009 27.7C371.261 27.268 371.501 26.836 371.717 26.404H371.765C371.741 26.86 371.705 27.568 371.705 28V30.7H369.005ZM371.705 34H372.737V31.576H373.901V30.7H372.737V25.192H371.525L367.865 30.856V31.576H371.705V34ZM377.413 34.156C378.901 34.156 380.293 33.064 380.293 31.132C380.293 29.2 379.105 28.336 377.641 28.336C377.113 28.336 376.729 28.468 376.333 28.684L376.549 26.14H379.873V25.192H375.589L375.313 29.32L375.901 29.68C376.405 29.344 376.777 29.164 377.365 29.164C378.469 29.164 379.189 29.908 379.189 31.168C379.189 32.452 378.349 33.244 377.317 33.244C376.297 33.244 375.661 32.776 375.157 32.272L374.617 32.992C375.205 33.58 376.045 34.156 377.413 34.156ZM384.07 34.156C385.558 34.156 386.95 33.064 386.95 31.132C386.95 29.2 385.762 28.336 384.298 28.336C383.77 28.336 383.386 28.468 382.99 28.684L383.206 26.14H386.53V25.192H382.246L381.97 29.32L382.558 29.68C383.062 29.344 383.434 29.164 384.021 29.164C385.126 29.164 385.846 29.908 385.846 31.168C385.846 32.452 385.006 33.244 383.974 33.244C382.954 33.244 382.318 32.776 381.814 32.272L381.274 32.992C381.862 33.58 382.701 34.156 384.07 34.156ZM391.11 29.356C392.178 29.356 392.706 30.112 392.706 31.3C392.706 32.5 392.046 33.304 391.206 33.304C390.102 33.304 389.442 32.308 389.31 30.484C389.85 29.68 390.558 29.356 391.11 29.356ZM391.206 34.156C392.574 34.156 393.726 33.004 393.726 31.3C393.726 29.464 392.778 28.54 391.29 28.54C390.594 28.54 389.826 28.948 389.286 29.608C389.334 26.872 390.354 25.948 391.554 25.948C392.094 25.948 392.622 26.2 392.97 26.62L393.57 25.936C393.09 25.42 392.43 25.036 391.518 25.036C389.814 25.036 388.266 26.356 388.266 29.8C388.266 32.704 389.514 34.156 391.206 34.156ZM397.766 29.356C398.834 29.356 399.362 30.112 399.362 31.3C399.362 32.5 398.702 33.304 397.862 33.304C396.758 33.304 396.098 32.308 395.966 30.484C396.506 29.68 397.214 29.356 397.766 29.356ZM397.862 34.156C399.23 34.156 400.382 33.004 400.382 31.3C400.382 29.464 399.434 28.54 397.946 28.54C397.25 28.54 396.482 28.948 395.942 29.608C395.99 26.872 397.01 25.948 398.21 25.948C398.75 25.948 399.278 26.2 399.626 26.62L400.226 25.936C399.746 25.42 399.086 25.036 398.174 25.036C396.47 25.036 394.922 26.356 394.922 29.8C394.922 32.704 396.17 34.156 397.862 34.156ZM403.282 34H404.422C404.554 30.556 404.938 28.504 407.002 25.864V25.192H401.494V26.14H405.754C404.038 28.54 403.426 30.664 403.282 34ZM410.73 34.156C412.291 34.156 413.551 33.22 413.551 31.648C413.551 30.448 412.723 29.656 411.691 29.416V29.368C412.615 29.02 413.251 28.312 413.251 27.244C413.251 25.852 412.171 25.036 410.695 25.036C409.675 25.036 408.895 25.48 408.235 26.092L408.823 26.788C409.315 26.284 409.939 25.936 410.646 25.936C411.559 25.936 412.135 26.488 412.135 27.328C412.135 28.276 411.511 29.008 409.699 29.008V29.848C411.727 29.848 412.435 30.556 412.435 31.6C412.435 32.62 411.691 33.244 410.646 33.244C409.651 33.244 408.979 32.776 408.463 32.236L407.911 32.956C408.487 33.58 409.351 34.156 410.73 34.156Z" fill="white"/>
<path d="M74.88 152.316H76.02V151.5H74.88V148.956H74.064V151.5H72.66V152.316H74.016C73.716 153.948 73.092 155.88 72.432 156.924C72.576 157.116 72.78 157.44 72.888 157.68C73.32 156.972 73.74 155.88 74.064 154.728V159.912H74.88V153.984C75.18 154.572 75.54 155.292 75.696 155.688L76.188 154.968C76.008 154.62 75.168 153.228 74.88 152.784V152.316ZM83.232 151.068V150.264H78.348C78.504 149.904 78.636 149.52 78.744 149.136L77.928 148.944C77.58 150.252 76.968 151.524 76.212 152.352C76.392 152.472 76.728 152.736 76.872 152.88C77.28 152.388 77.664 151.764 78.012 151.068H83.232ZM78.948 153.552C79.452 153.876 80.148 154.38 80.52 154.68L81.012 154.176C80.64 153.9 79.956 153.432 79.428 153.108L78.948 153.552ZM80.808 156.828C80.46 156.54 79.764 156.024 79.248 155.688L78.768 156.12C79.26 156.468 79.944 156.996 80.316 157.32L80.808 156.828ZM77.724 157.524C77.808 156.948 77.904 156.276 77.988 155.568H81.792C81.756 156.384 81.708 157.032 81.66 157.524H77.724ZM81.9 152.964C81.876 153.648 81.852 154.248 81.828 154.788H78.084C78.156 154.164 78.216 153.552 78.288 152.964H81.9ZM83.472 155.568V154.788H82.632C82.668 154.152 82.692 153.444 82.716 152.628C82.716 152.52 82.728 152.208 82.728 152.208H77.544C77.484 152.988 77.388 153.888 77.268 154.788H76.296V155.568H77.172C77.04 156.588 76.884 157.56 76.764 158.28H81.564C81.504 158.628 81.432 158.844 81.348 158.94C81.264 159.096 81.156 159.12 80.964 159.108C80.76 159.108 80.304 159.108 79.8 159.072C79.932 159.276 80.004 159.6 80.016 159.828C80.52 159.852 81.012 159.864 81.3 159.828C81.648 159.792 81.876 159.696 82.068 159.42C82.212 159.228 82.32 158.892 82.404 158.28H83.316V157.524H82.476C82.524 157.008 82.56 156.372 82.608 155.568H83.472ZM93.768 151.428V158.088H90.444V149.1H89.532V158.088H86.244V151.44H85.332V158.988H93.768V159.876H94.68V151.428H93.768ZM99.204 152.532C100.26 151.908 101.22 151.14 102.012 150.276C102.792 151.092 103.848 151.896 104.928 152.532H99.204ZM105.072 153.36V152.616C105.72 152.988 106.38 153.3 107.004 153.528C107.136 153.3 107.412 152.94 107.628 152.76C105.804 152.184 103.692 150.936 102.504 149.664C102.612 149.52 102.72 149.364 102.804 149.232L101.988 148.848C100.848 150.624 98.64 152.028 96.408 152.76C96.636 152.976 96.876 153.324 97.008 153.564C97.656 153.336 98.304 153.036 98.916 152.7V153.36H101.508V154.992H97.392V155.808H101.508V158.736H96.852V159.564H107.16V158.736H102.432V155.808H106.62V154.992H102.432V153.36H105.072ZM104.196 158.568C104.628 158.004 105.18 157.152 105.624 156.396L104.772 156.072C104.484 156.744 103.944 157.692 103.524 158.28L104.196 158.568ZM98.4 156.372C98.856 157.044 99.336 157.992 99.504 158.544L100.284 158.22C100.092 157.644 99.6 156.744 99.144 156.072L98.4 156.372ZM110.124 155.04C110.136 154.56 110.148 154.092 110.148 153.684V153.024H111.96V155.04H110.124ZM111.96 150.228V152.196H110.148V150.228H111.96ZM112.788 149.4H109.332V153.684C109.332 155.448 109.272 157.824 108.444 159.504C108.66 159.588 109.02 159.792 109.176 159.936C109.716 158.808 109.968 157.308 110.076 155.892H111.96V158.844C111.96 159.012 111.9 159.06 111.732 159.072C111.588 159.084 111.084 159.084 110.532 159.072C110.652 159.3 110.772 159.696 110.784 159.924C111.6 159.924 112.08 159.912 112.38 159.756C112.692 159.6 112.788 159.336 112.788 158.856V149.4ZM118.272 154.308C117.996 155.328 117.588 156.228 117.072 156.996C116.52 156.204 116.088 155.292 115.764 154.308H118.272ZM118.728 153.456L118.572 153.48H114.684V150.264H118.044V151.728C118.044 151.872 117.996 151.92 117.804 151.92C117.624 151.932 117 151.932 116.268 151.92C116.388 152.136 116.52 152.436 116.556 152.676C117.456 152.676 118.056 152.676 118.44 152.556C118.8 152.424 118.908 152.196 118.908 151.74V149.436H113.844V159.924H114.684V154.308H114.984C115.38 155.544 115.908 156.696 116.58 157.668C116.028 158.316 115.404 158.832 114.744 159.192C114.924 159.348 115.152 159.648 115.272 159.852C115.932 159.468 116.544 158.952 117.084 158.316C117.66 158.988 118.308 159.528 119.028 159.936C119.16 159.72 119.4 159.42 119.604 159.252C118.848 158.88 118.176 158.34 117.6 157.68C118.356 156.612 118.932 155.268 119.244 153.636L118.728 153.456ZM128.556 151.428C128.16 150.924 127.32 150.24 126.6 149.784L126.036 150.3C126.744 150.792 127.572 151.5 127.944 152.004L128.556 151.428ZM128.268 154.584C127.824 154.068 126.888 153.36 126.12 152.892L125.568 153.42C126.324 153.9 127.248 154.644 127.68 155.172L128.268 154.584ZM125.112 155.436C124.86 155.112 123.828 153.792 123.456 153.372V153.156H125.22V152.316H123.456V150.312C124.032 150.18 124.584 150.012 125.028 149.832L124.488 149.124C123.588 149.52 122.016 149.868 120.672 150.084C120.768 150.276 120.888 150.588 120.936 150.78C121.464 150.708 122.028 150.612 122.58 150.504V152.316H120.564V153.156H122.46C121.992 154.536 121.152 156.072 120.396 156.924C120.54 157.128 120.756 157.488 120.84 157.728C121.464 156.984 122.088 155.796 122.58 154.596V159.9H123.456V154.344C123.864 154.956 124.368 155.736 124.572 156.132L125.112 155.436ZM131.532 156.516L131.4 155.7L129.996 155.916V148.956H129.12V156.06L125.064 156.708L125.208 157.56L129.12 156.912V159.9H129.996V156.768L131.532 156.516ZM136.368 154.2C135.936 154.332 135.48 154.464 135.048 154.584V152.208H136.368V151.368H135.048V148.968H134.172V151.368H132.636V152.208H134.172V154.824C133.536 155.004 132.96 155.148 132.48 155.256L132.732 156.132L134.172 155.712V158.844C134.172 159.012 134.1 159.072 133.932 159.072C133.788 159.084 133.272 159.084 132.696 159.072C132.816 159.312 132.948 159.66 132.972 159.888C133.8 159.9 134.304 159.876 134.604 159.732C134.916 159.588 135.048 159.348 135.048 158.844V155.448C135.516 155.304 136.008 155.16 136.488 155.016L136.368 154.2ZM141.72 154.284C141.288 155.376 140.616 156.3 139.788 157.044C139.032 156.276 138.432 155.328 138.024 154.284H141.72ZM142.284 153.42L142.14 153.456H140.232V151.668H143.1V150.84H140.232V148.956H139.356V150.84H136.548V151.668H139.356V153.456H136.788V154.284H137.184L137.148 154.296C137.616 155.58 138.276 156.684 139.116 157.584C138.144 158.292 137.028 158.796 135.864 159.108C136.032 159.3 136.248 159.672 136.344 159.912C137.568 159.528 138.732 158.976 139.752 158.196C140.64 158.976 141.708 159.552 142.956 159.936C143.088 159.696 143.34 159.348 143.532 159.168C142.332 158.844 141.3 158.328 140.436 157.62C141.516 156.624 142.368 155.316 142.872 153.672L142.284 153.42ZM152.964 154.752H147.96V153.54H152.964V154.752ZM147.96 156.78V155.52H152.964V156.78H147.96ZM155.244 151.344V150.504H149.136C149.316 150.072 149.46 149.616 149.604 149.172L148.716 148.956C148.572 149.472 148.392 149.988 148.188 150.504H144.804V151.344H147.816C147.048 152.928 145.956 154.368 144.516 155.34C144.696 155.508 144.972 155.832 145.092 156.024C145.848 155.496 146.508 154.848 147.084 154.14V159.912H147.96V157.548H152.964V158.796C152.964 158.976 152.892 159.036 152.688 159.048C152.472 159.048 151.752 159.06 150.96 159.024C151.08 159.276 151.212 159.636 151.248 159.9C152.268 159.9 152.94 159.888 153.336 159.744C153.72 159.6 153.84 159.336 153.84 158.796V152.736H148.056C148.32 152.292 148.56 151.812 148.788 151.344H155.244ZM160.14 149.412L160.008 149.448H157.14V159.9H157.932V150.264H159.672C159.432 151.056 159.072 152.088 158.724 152.952C159.588 153.912 159.804 154.74 159.804 155.388C159.804 155.748 159.732 156.084 159.552 156.216C159.456 156.288 159.324 156.312 159.18 156.324C158.988 156.348 158.76 156.336 158.484 156.312C158.616 156.54 158.7 156.876 158.712 157.104C158.964 157.116 159.276 157.116 159.504 157.08C159.744 157.056 159.972 156.984 160.14 156.852C160.464 156.624 160.608 156.096 160.608 155.472C160.608 154.728 160.392 153.852 159.528 152.856C159.936 151.908 160.368 150.732 160.728 149.76L160.14 149.412ZM162.18 152.46H165.696V153.948H162.18V152.46ZM165.696 150.276V151.716H162.18V150.276H165.696ZM166.692 155.112C166.2 155.544 165.444 156.108 164.82 156.528C164.52 155.988 164.292 155.376 164.112 154.728H166.56V149.484H161.316V158.352C161.316 158.844 161.064 159.096 160.872 159.192C161.016 159.36 161.208 159.732 161.268 159.924C161.508 159.768 161.868 159.648 164.34 158.976C164.304 158.784 164.292 158.424 164.292 158.16L162.18 158.676V154.728H163.332C163.932 157.104 165.048 158.94 166.92 159.828C167.064 159.6 167.34 159.24 167.532 159.072C166.572 158.676 165.804 158.016 165.216 157.164C165.876 156.768 166.668 156.24 167.28 155.736L166.692 155.112ZM171.912 149.316C171.204 151.104 170.004 152.82 168.66 153.876C168.888 154.02 169.296 154.332 169.488 154.512C170.784 153.336 172.056 151.524 172.86 149.58L171.912 149.316ZM175.332 155.712C175.8 156.3 176.316 156.996 176.796 157.668L171.216 158.004C172.392 156.612 173.568 154.836 174.552 153.024L173.592 152.592C172.632 154.584 171.18 156.66 170.712 157.188C170.256 157.764 169.932 158.124 169.62 158.196C169.752 158.448 169.92 158.94 169.968 159.132C170.412 158.964 171.06 158.928 177.36 158.496C177.672 158.988 177.96 159.456 178.152 159.84L179.016 159.36C178.428 158.28 177.204 156.6 176.16 155.328L175.332 155.712ZM175.092 149.568C176.016 151.368 177.54 153.372 178.776 154.512C178.956 154.272 179.292 153.936 179.52 153.756C178.284 152.76 176.76 150.864 175.968 149.232L175.092 149.568ZM186.66 154.716V156.948H182.808V154.716H186.66ZM187.536 157.74V153.924H181.932V158.616H182.808V157.74H187.536ZM188.352 151.836H181.176V152.64H188.352V151.836ZM190.62 149.736H181.092V150.588H189.72V158.592C189.72 158.82 189.66 158.88 189.432 158.892C189.192 158.904 188.364 158.904 187.536 158.88C187.68 159.132 187.812 159.576 187.848 159.84C188.916 159.84 189.66 159.828 190.08 159.672C190.488 159.516 190.62 159.204 190.62 158.592V149.736Z" fill="#333333"/>
<path d="M122.292 122.452V121.636H118.776C118.944 121.156 119.112 120.664 119.244 120.16L118.38 119.98C117.948 121.744 117.168 123.4 116.16 124.444C116.376 124.576 116.736 124.852 116.892 124.984C117.48 124.324 118.008 123.436 118.44 122.452H122.292ZM118.596 123.76C119.448 124.36 120.48 125.2 120.972 125.752L121.692 125.212C121.164 124.66 120.108 123.844 119.268 123.292L118.596 123.76ZM115.704 120.004H114.828V125.656H115.704V120.004ZM113.352 120.4H112.488V125.284H113.352V120.4ZM113.784 127.144H115.392V129.784H113.784V127.144ZM117.828 127.144V129.784H116.22V127.144H117.828ZM120.288 127.144V129.784H118.656V127.144H120.288ZM121.164 129.784V126.376H112.944V129.784H111.6V130.6H122.436V129.784H121.164ZM132.288 128.416H129.408V127.516H132.288V128.416ZM129.408 125.968H132.288V126.808H129.408V125.968ZM125.94 123.844V122.98H128.52V123.844H125.94ZM132.096 122.98V123.844H129.408V122.98H132.096ZM134.412 126.808H133.176V125.308H129.408V124.468H132.984V122.356H129.408V121.66H134.184V120.928H129.408V119.968H128.52V120.928H123.84V121.66H128.52V122.356H125.088V124.468H128.52V125.308H124.752V125.968H128.52V126.808H123.612V127.516H128.52V128.416H124.644V129.1H128.52V129.928C128.52 130.132 128.448 130.204 128.22 130.216C128.016 130.216 127.296 130.228 126.576 130.204C126.696 130.408 126.84 130.732 126.888 130.96C127.884 130.96 128.508 130.948 128.88 130.816C129.24 130.684 129.408 130.48 129.408 129.928V129.1H132.288V129.64H133.176V127.516H134.412V126.808ZM144.204 120.232C143.16 121.468 141.432 122.608 139.752 123.304C139.968 123.472 140.328 123.82 140.472 124.012C142.104 123.22 143.916 121.996 145.092 120.616L144.204 120.232ZM146.28 125.512V124.636H138.924V120.04H138V124.636H135.708V125.512H138V129.328C138 129.796 137.712 129.964 137.52 130.06C137.664 130.252 137.82 130.624 137.88 130.852C138.168 130.66 138.612 130.516 141.876 129.652C141.828 129.448 141.792 129.076 141.792 128.812L138.924 129.52V125.512H140.796C141.756 127.984 143.448 129.748 145.932 130.564C146.064 130.312 146.328 129.928 146.556 129.748C144.264 129.088 142.596 127.564 141.708 125.512H146.28Z" fill="#333333"/>
<path d="M418.54 122.236H419.416V121.516H422.536V122.176H423.412V121.516H426.244V120.784H423.412V119.968H422.536V120.784H419.416V119.968H418.54V120.784H415.756V121.516H418.54V122.236ZM417.796 127.336V126.604H420.52V127.336H417.796ZM417.796 125.392H420.52V126.1H417.796V125.392ZM424.204 125.392V126.1H421.396V125.392H424.204ZM424.204 127.336H421.396V126.604H424.204V127.336ZM421.396 129.868V129.136H425.464V128.512H421.396V127.876H425.08V124.84H421.396V124.264H426.256V123.616H421.396V122.932C422.824 122.86 424.168 122.764 425.248 122.62L424.684 122.056C422.8 122.296 419.392 122.452 416.548 122.476C416.608 122.632 416.68 122.896 416.692 123.064C417.928 123.064 419.236 123.028 420.52 122.968V123.616H415.768V124.264H420.52V124.84H416.956V127.876H420.52V128.512H416.584V129.136H420.52V129.868H415.684V130.54H426.328V129.868H421.396ZM436.288 128.416H433.408V127.516H436.288V128.416ZM433.408 125.968H436.288V126.808H433.408V125.968ZM429.94 123.844V122.98H432.52V123.844H429.94ZM436.096 122.98V123.844H433.408V122.98H436.096ZM438.412 126.808H437.176V125.308H433.408V124.468H436.984V122.356H433.408V121.66H438.184V120.928H433.408V119.968H432.52V120.928H427.84V121.66H432.52V122.356H429.088V124.468H432.52V125.308H428.752V125.968H432.52V126.808H427.612V127.516H432.52V128.416H428.644V129.1H432.52V129.928C432.52 130.132 432.448 130.204 432.22 130.216C432.016 130.216 431.296 130.228 430.576 130.204C430.696 130.408 430.84 130.732 430.888 130.96C431.884 130.96 432.508 130.948 432.88 130.816C433.24 130.684 433.408 130.48 433.408 129.928V129.1H436.288V129.64H437.176V127.516H438.412V126.808ZM448.204 120.232C447.16 121.468 445.432 122.608 443.752 123.304C443.968 123.472 444.328 123.82 444.472 124.012C446.104 123.22 447.916 121.996 449.092 120.616L448.204 120.232ZM450.28 125.512V124.636H442.924V120.04H442V124.636H439.708V125.512H442V129.328C442 129.796 441.712 129.964 441.52 130.06C441.664 130.252 441.82 130.624 441.88 130.852C442.168 130.66 442.612 130.516 445.876 129.652C445.828 129.448 445.792 129.076 445.792 128.812L442.924 129.52V125.512H444.796C445.756 127.984 447.448 129.748 449.932 130.564C450.064 130.312 450.328 129.928 450.556 129.748C448.264 129.088 446.596 127.564 445.708 125.512H450.28Z" fill="#333333"/>
<path d="M706.02 121.252H708.072V123.172C708.072 124.072 708.24 124.408 709.02 124.408H709.788C710.004 124.408 710.244 124.396 710.364 124.348C710.352 124.144 710.316 123.808 710.304 123.58C710.148 123.616 709.932 123.64 709.776 123.64H709.08C708.912 123.64 708.888 123.532 708.888 123.196V120.412H705.216V121.732C705.216 122.584 705.012 123.556 703.752 124.3C703.896 124.432 704.196 124.768 704.316 124.96C705.708 124.108 706.02 122.824 706.02 121.756V121.252ZM701.1 126.064C701.124 125.572 701.124 125.104 701.124 124.684V124.024H702.84V126.064H701.1ZM702.84 121.216V123.208H701.124V121.216H702.84ZM703.644 120.4H700.32V124.696C700.32 126.448 700.26 128.836 699.456 130.516C699.66 130.588 700.02 130.792 700.176 130.924C700.716 129.784 700.956 128.296 701.052 126.892H702.84V129.772C702.84 129.928 702.78 129.988 702.636 130C702.492 130 702.036 130 701.52 129.988C701.628 130.216 701.724 130.6 701.76 130.816C702.528 130.816 702.972 130.804 703.26 130.66C703.548 130.504 703.644 130.24 703.644 129.784V120.4ZM708.72 126.064C708.324 126.976 707.748 127.756 707.04 128.38C706.332 127.732 705.78 126.94 705.384 126.064H708.72ZM709.296 125.188L709.152 125.224H704.1V126.064H704.784L704.604 126.136C705.036 127.204 705.636 128.128 706.392 128.896C705.576 129.472 704.628 129.88 703.656 130.132C703.812 130.324 704.004 130.66 704.088 130.912C705.144 130.588 706.14 130.12 707.016 129.46C707.868 130.132 708.864 130.636 710.004 130.948C710.112 130.708 710.352 130.36 710.532 130.168C709.452 129.916 708.504 129.484 707.688 128.908C708.636 128.032 709.38 126.88 709.824 125.416L709.296 125.188ZM714.12 126.868C713.628 127.996 712.776 129.112 711.9 129.844C712.116 129.988 712.488 130.264 712.656 130.432C713.52 129.616 714.432 128.356 714.996 127.096L714.12 126.868ZM721.44 125.908L721.452 125.044H717.984V123.292H717.096V125.044H714.264C714.828 124.264 715.404 123.352 715.932 122.392H721.944V121.54H716.388C716.604 121.132 716.808 120.7 716.988 120.292L716.064 119.896C715.836 120.448 715.584 121.012 715.308 121.54H711.972V122.392H714.864C714.384 123.256 713.94 123.952 713.736 124.228C713.364 124.756 713.112 125.092 712.836 125.164C712.956 125.416 713.112 125.884 713.172 126.088C713.28 125.968 713.748 125.908 714.456 125.908H717.096V129.688C717.096 129.856 717.048 129.904 716.856 129.916C716.664 129.928 716.028 129.928 715.332 129.904C715.476 130.156 715.632 130.564 715.668 130.816C716.52 130.816 717.132 130.792 717.504 130.636C717.864 130.492 717.984 130.228 717.984 129.7V125.908H721.44ZM718.968 127.216C719.904 128.152 720.972 129.46 721.44 130.276L722.244 129.844C721.74 129.004 720.636 127.744 719.7 126.844L718.968 127.216Z" fill="#333333"/>
<rect x="287.5" y="138.5" width="257" height="32" fill="white" stroke="#CCCCCC"/>
<path d="M353.88 152.316H355.02V151.5H353.88V148.956H353.064V151.5H351.66V152.316H353.016C352.716 153.948 352.092 155.88 351.432 156.924C351.576 157.116 351.78 157.44 351.888 157.68C352.32 156.972 352.74 155.88 353.064 154.728V159.912H353.88V153.984C354.18 154.572 354.54 155.292 354.696 155.688L355.188 154.968C355.008 154.62 354.168 153.228 353.88 152.784V152.316ZM362.232 151.068V150.264H357.348C357.504 149.904 357.636 149.52 357.744 149.136L356.928 148.944C356.58 150.252 355.968 151.524 355.212 152.352C355.392 152.472 355.728 152.736 355.872 152.88C356.28 152.388 356.664 151.764 357.012 151.068H362.232ZM357.948 153.552C358.452 153.876 359.148 154.38 359.52 154.68L360.012 154.176C359.64 153.9 358.956 153.432 358.428 153.108L357.948 153.552ZM359.808 156.828C359.46 156.54 358.764 156.024 358.248 155.688L357.768 156.12C358.26 156.468 358.944 156.996 359.316 157.32L359.808 156.828ZM356.724 157.524C356.808 156.948 356.904 156.276 356.988 155.568H360.792C360.756 156.384 360.708 157.032 360.66 157.524H356.724ZM360.9 152.964C360.876 153.648 360.852 154.248 360.828 154.788H357.084C357.156 154.164 357.216 153.552 357.288 152.964H360.9ZM362.472 155.568V154.788H361.632C361.668 154.152 361.692 153.444 361.716 152.628C361.716 152.52 361.728 152.208 361.728 152.208H356.544C356.484 152.988 356.388 153.888 356.268 154.788H355.296V155.568H356.172C356.04 156.588 355.884 157.56 355.764 158.28H360.564C360.504 158.628 360.432 158.844 360.348 158.94C360.264 159.096 360.156 159.12 359.964 159.108C359.76 159.108 359.304 159.108 358.8 159.072C358.932 159.276 359.004 159.6 359.016 159.828C359.52 159.852 360.012 159.864 360.3 159.828C360.648 159.792 360.876 159.696 361.068 159.42C361.212 159.228 361.32 158.892 361.404 158.28H362.316V157.524H361.476C361.524 157.008 361.56 156.372 361.608 155.568H362.472ZM372.768 151.428V158.088H369.444V149.1H368.532V158.088H365.244V151.44H364.332V158.988H372.768V159.876H373.68V151.428H372.768ZM378.204 152.532C379.26 151.908 380.22 151.14 381.012 150.276C381.792 151.092 382.848 151.896 383.928 152.532H378.204ZM384.072 153.36V152.616C384.72 152.988 385.38 153.3 386.004 153.528C386.136 153.3 386.412 152.94 386.628 152.76C384.804 152.184 382.692 150.936 381.504 149.664C381.612 149.52 381.72 149.364 381.804 149.232L380.988 148.848C379.848 150.624 377.64 152.028 375.408 152.76C375.636 152.976 375.876 153.324 376.008 153.564C376.656 153.336 377.304 153.036 377.916 152.7V153.36H380.508V154.992H376.392V155.808H380.508V158.736H375.852V159.564H386.16V158.736H381.432V155.808H385.62V154.992H381.432V153.36H384.072ZM383.196 158.568C383.628 158.004 384.18 157.152 384.624 156.396L383.772 156.072C383.484 156.744 382.944 157.692 382.524 158.28L383.196 158.568ZM377.4 156.372C377.856 157.044 378.336 157.992 378.504 158.544L379.284 158.22C379.092 157.644 378.6 156.744 378.144 156.072L377.4 156.372ZM389.124 155.04C389.136 154.56 389.148 154.092 389.148 153.684V153.024H390.96V155.04H389.124ZM390.96 150.228V152.196H389.148V150.228H390.96ZM391.788 149.4H388.332V153.684C388.332 155.448 388.272 157.824 387.444 159.504C387.66 159.588 388.02 159.792 388.176 159.936C388.716 158.808 388.968 157.308 389.076 155.892H390.96V158.844C390.96 159.012 390.9 159.06 390.732 159.072C390.588 159.084 390.084 159.084 389.532 159.072C389.652 159.3 389.772 159.696 389.784 159.924C390.6 159.924 391.08 159.912 391.38 159.756C391.692 159.6 391.788 159.336 391.788 158.856V149.4ZM397.272 154.308C396.996 155.328 396.588 156.228 396.072 156.996C395.52 156.204 395.088 155.292 394.764 154.308H397.272ZM397.728 153.456L397.572 153.48H393.684V150.264H397.044V151.728C397.044 151.872 396.996 151.92 396.804 151.92C396.624 151.932 396 151.932 395.268 151.92C395.388 152.136 395.52 152.436 395.556 152.676C396.456 152.676 397.056 152.676 397.44 152.556C397.8 152.424 397.908 152.196 397.908 151.74V149.436H392.844V159.924H393.684V154.308H393.984C394.38 155.544 394.908 156.696 395.58 157.668C395.028 158.316 394.404 158.832 393.744 159.192C393.924 159.348 394.152 159.648 394.272 159.852C394.932 159.468 395.544 158.952 396.084 158.316C396.66 158.988 397.308 159.528 398.028 159.936C398.16 159.72 398.4 159.42 398.604 159.252C397.848 158.88 397.176 158.34 396.6 157.68C397.356 156.612 397.932 155.268 398.244 153.636L397.728 153.456ZM407.556 151.428C407.16 150.924 406.32 150.24 405.6 149.784L405.036 150.3C405.744 150.792 406.572 151.5 406.944 152.004L407.556 151.428ZM407.268 154.584C406.824 154.068 405.888 153.36 405.12 152.892L404.568 153.42C405.324 153.9 406.248 154.644 406.68 155.172L407.268 154.584ZM404.112 155.436C403.86 155.112 402.828 153.792 402.456 153.372V153.156H404.22V152.316H402.456V150.312C403.032 150.18 403.584 150.012 404.028 149.832L403.488 149.124C402.588 149.52 401.016 149.868 399.672 150.084C399.768 150.276 399.888 150.588 399.936 150.78C400.464 150.708 401.028 150.612 401.58 150.504V152.316H399.564V153.156H401.46C400.992 154.536 400.152 156.072 399.396 156.924C399.54 157.128 399.756 157.488 399.84 157.728C400.464 156.984 401.088 155.796 401.58 154.596V159.9H402.456V154.344C402.864 154.956 403.368 155.736 403.572 156.132L404.112 155.436ZM410.532 156.516L410.4 155.7L408.996 155.916V148.956H408.12V156.06L404.064 156.708L404.208 157.56L408.12 156.912V159.9H408.996V156.768L410.532 156.516ZM415.368 154.2C414.936 154.332 414.48 154.464 414.048 154.584V152.208H415.368V151.368H414.048V148.968H413.172V151.368H411.636V152.208H413.172V154.824C412.536 155.004 411.96 155.148 411.48 155.256L411.732 156.132L413.172 155.712V158.844C413.172 159.012 413.1 159.072 412.932 159.072C412.788 159.084 412.272 159.084 411.696 159.072C411.816 159.312 411.948 159.66 411.972 159.888C412.8 159.9 413.304 159.876 413.604 159.732C413.916 159.588 414.048 159.348 414.048 158.844V155.448C414.516 155.304 415.008 155.16 415.488 155.016L415.368 154.2ZM420.72 154.284C420.288 155.376 419.616 156.3 418.788 157.044C418.032 156.276 417.432 155.328 417.024 154.284H420.72ZM421.284 153.42L421.14 153.456H419.232V151.668H422.1V150.84H419.232V148.956H418.356V150.84H415.548V151.668H418.356V153.456H415.788V154.284H416.184L416.148 154.296C416.616 155.58 417.276 156.684 418.116 157.584C417.144 158.292 416.028 158.796 414.864 159.108C415.032 159.3 415.248 159.672 415.344 159.912C416.568 159.528 417.732 158.976 418.752 158.196C419.64 158.976 420.708 159.552 421.956 159.936C422.088 159.696 422.34 159.348 422.532 159.168C421.332 158.844 420.3 158.328 419.436 157.62C420.516 156.624 421.368 155.316 421.872 153.672L421.284 153.42ZM431.964 154.752H426.96V153.54H431.964V154.752ZM426.96 156.78V155.52H431.964V156.78H426.96ZM434.244 151.344V150.504H428.136C428.316 150.072 428.46 149.616 428.604 149.172L427.716 148.956C427.572 149.472 427.392 149.988 427.188 150.504H423.804V151.344H426.816C426.048 152.928 424.956 154.368 423.516 155.34C423.696 155.508 423.972 155.832 424.092 156.024C424.848 155.496 425.508 154.848 426.084 154.14V159.912H426.96V157.548H431.964V158.796C431.964 158.976 431.892 159.036 431.688 159.048C431.472 159.048 430.752 159.06 429.96 159.024C430.08 159.276 430.212 159.636 430.248 159.9C431.268 159.9 431.94 159.888 432.336 159.744C432.72 159.6 432.84 159.336 432.84 158.796V152.736H427.056C427.32 152.292 427.56 151.812 427.788 151.344H434.244ZM439.14 149.412L439.008 149.448H436.14V159.9H436.932V150.264H438.672C438.432 151.056 438.072 152.088 437.724 152.952C438.588 153.912 438.804 154.74 438.804 155.388C438.804 155.748 438.732 156.084 438.552 156.216C438.456 156.288 438.324 156.312 438.18 156.324C437.988 156.348 437.76 156.336 437.484 156.312C437.616 156.54 437.7 156.876 437.712 157.104C437.964 157.116 438.276 157.116 438.504 157.08C438.744 157.056 438.972 156.984 439.14 156.852C439.464 156.624 439.608 156.096 439.608 155.472C439.608 154.728 439.392 153.852 438.528 152.856C438.936 151.908 439.368 150.732 439.728 149.76L439.14 149.412ZM441.18 152.46H444.696V153.948H441.18V152.46ZM444.696 150.276V151.716H441.18V150.276H444.696ZM445.692 155.112C445.2 155.544 444.444 156.108 443.82 156.528C443.52 155.988 443.292 155.376 443.112 154.728H445.56V149.484H440.316V158.352C440.316 158.844 440.064 159.096 439.872 159.192C440.016 159.36 440.208 159.732 440.268 159.924C440.508 159.768 440.868 159.648 443.34 158.976C443.304 158.784 443.292 158.424 443.292 158.16L441.18 158.676V154.728H442.332C442.932 157.104 444.048 158.94 445.92 159.828C446.064 159.6 446.34 159.24 446.532 159.072C445.572 158.676 444.804 158.016 444.216 157.164C444.876 156.768 445.668 156.24 446.28 155.736L445.692 155.112ZM450.912 149.316C450.204 151.104 449.004 152.82 447.66 153.876C447.888 154.02 448.296 154.332 448.488 154.512C449.784 153.336 451.056 151.524 451.86 149.58L450.912 149.316ZM454.332 155.712C454.8 156.3 455.316 156.996 455.796 157.668L450.216 158.004C451.392 156.612 452.568 154.836 453.552 153.024L452.592 152.592C451.632 154.584 450.18 156.66 449.712 157.188C449.256 157.764 448.932 158.124 448.62 158.196C448.752 158.448 448.92 158.94 448.968 159.132C449.412 158.964 450.06 158.928 456.36 158.496C456.672 158.988 456.96 159.456 457.152 159.84L458.016 159.36C457.428 158.28 456.204 156.6 455.16 155.328L454.332 155.712ZM454.092 149.568C455.016 151.368 456.54 153.372 457.776 154.512C457.956 154.272 458.292 153.936 458.52 153.756C457.284 152.76 455.76 150.864 454.968 149.232L454.092 149.568ZM465.66 154.716V156.948H461.808V154.716H465.66ZM466.536 157.74V153.924H460.932V158.616H461.808V157.74H466.536ZM467.352 151.836H460.176V152.64H467.352V151.836ZM469.62 149.736H460.092V150.588H468.72V158.592C468.72 158.82 468.66 158.88 468.432 158.892C468.192 158.904 467.364 158.904 466.536 158.88C466.68 159.132 466.812 159.576 466.848 159.84C467.916 159.84 468.66 159.828 469.08 159.672C469.488 159.516 469.62 159.204 469.62 158.592V149.736Z" fill="#333333"/>
<rect x="582.5" y="138.5" width="257" height="32" fill="white" stroke="#CCCCCC"/>
<path d="M648.88 152.316H650.02V151.5H648.88V148.956H648.064V151.5H646.66V152.316H648.016C647.716 153.948 647.092 155.88 646.432 156.924C646.576 157.116 646.78 157.44 646.888 157.68C647.32 156.972 647.74 155.88 648.064 154.728V159.912H648.88V153.984C649.18 154.572 649.54 155.292 649.696 155.688L650.188 154.968C650.008 154.62 649.168 153.228 648.88 152.784V152.316ZM657.232 151.068V150.264H652.348C652.504 149.904 652.636 149.52 652.744 149.136L651.928 148.944C651.58 150.252 650.968 151.524 650.212 152.352C650.392 152.472 650.728 152.736 650.872 152.88C651.28 152.388 651.664 151.764 652.012 151.068H657.232ZM652.948 153.552C653.452 153.876 654.148 154.38 654.52 154.68L655.012 154.176C654.64 153.9 653.956 153.432 653.428 153.108L652.948 153.552ZM654.808 156.828C654.46 156.54 653.764 156.024 653.248 155.688L652.768 156.12C653.26 156.468 653.944 156.996 654.316 157.32L654.808 156.828ZM651.724 157.524C651.808 156.948 651.904 156.276 651.988 155.568H655.792C655.756 156.384 655.708 157.032 655.66 157.524H651.724ZM655.9 152.964C655.876 153.648 655.852 154.248 655.828 154.788H652.084C652.156 154.164 652.216 153.552 652.288 152.964H655.9ZM657.472 155.568V154.788H656.632C656.668 154.152 656.692 153.444 656.716 152.628C656.716 152.52 656.728 152.208 656.728 152.208H651.544C651.484 152.988 651.388 153.888 651.268 154.788H650.296V155.568H651.172C651.04 156.588 650.884 157.56 650.764 158.28H655.564C655.504 158.628 655.432 158.844 655.348 158.94C655.264 159.096 655.156 159.12 654.964 159.108C654.76 159.108 654.304 159.108 653.8 159.072C653.932 159.276 654.004 159.6 654.016 159.828C654.52 159.852 655.012 159.864 655.3 159.828C655.648 159.792 655.876 159.696 656.068 159.42C656.212 159.228 656.32 158.892 656.404 158.28H657.316V157.524H656.476C656.524 157.008 656.56 156.372 656.608 155.568H657.472ZM667.768 151.428V158.088H664.444V149.1H663.532V158.088H660.244V151.44H659.332V158.988H667.768V159.876H668.68V151.428H667.768ZM673.204 152.532C674.26 151.908 675.22 151.14 676.012 150.276C676.792 151.092 677.848 151.896 678.928 152.532H673.204ZM679.072 153.36V152.616C679.72 152.988 680.38 153.3 681.004 153.528C681.136 153.3 681.412 152.94 681.628 152.76C679.804 152.184 677.692 150.936 676.504 149.664C676.612 149.52 676.72 149.364 676.804 149.232L675.988 148.848C674.848 150.624 672.64 152.028 670.408 152.76C670.636 152.976 670.876 153.324 671.008 153.564C671.656 153.336 672.304 153.036 672.916 152.7V153.36H675.508V154.992H671.392V155.808H675.508V158.736H670.852V159.564H681.16V158.736H676.432V155.808H680.62V154.992H676.432V153.36H679.072ZM678.196 158.568C678.628 158.004 679.18 157.152 679.624 156.396L678.772 156.072C678.484 156.744 677.944 157.692 677.524 158.28L678.196 158.568ZM672.4 156.372C672.856 157.044 673.336 157.992 673.504 158.544L674.284 158.22C674.092 157.644 673.6 156.744 673.144 156.072L672.4 156.372ZM684.124 155.04C684.136 154.56 684.148 154.092 684.148 153.684V153.024H685.96V155.04H684.124ZM685.96 150.228V152.196H684.148V150.228H685.96ZM686.788 149.4H683.332V153.684C683.332 155.448 683.272 157.824 682.444 159.504C682.66 159.588 683.02 159.792 683.176 159.936C683.716 158.808 683.968 157.308 684.076 155.892H685.96V158.844C685.96 159.012 685.9 159.06 685.732 159.072C685.588 159.084 685.084 159.084 684.532 159.072C684.652 159.3 684.772 159.696 684.784 159.924C685.6 159.924 686.08 159.912 686.38 159.756C686.692 159.6 686.788 159.336 686.788 158.856V149.4ZM692.272 154.308C691.996 155.328 691.588 156.228 691.072 156.996C690.52 156.204 690.088 155.292 689.764 154.308H692.272ZM692.728 153.456L692.572 153.48H688.684V150.264H692.044V151.728C692.044 151.872 691.996 151.92 691.804 151.92C691.624 151.932 691 151.932 690.268 151.92C690.388 152.136 690.52 152.436 690.556 152.676C691.456 152.676 692.056 152.676 692.44 152.556C692.8 152.424 692.908 152.196 692.908 151.74V149.436H687.844V159.924H688.684V154.308H688.984C689.38 155.544 689.908 156.696 690.58 157.668C690.028 158.316 689.404 158.832 688.744 159.192C688.924 159.348 689.152 159.648 689.272 159.852C689.932 159.468 690.544 158.952 691.084 158.316C691.66 158.988 692.308 159.528 693.028 159.936C693.16 159.72 693.4 159.42 693.604 159.252C692.848 158.88 692.176 158.34 691.6 157.68C692.356 156.612 692.932 155.268 693.244 153.636L692.728 153.456ZM702.556 151.428C702.16 150.924 701.32 150.24 700.6 149.784L700.036 150.3C700.744 150.792 701.572 151.5 701.944 152.004L702.556 151.428ZM702.268 154.584C701.824 154.068 700.888 153.36 700.12 152.892L699.568 153.42C700.324 153.9 701.248 154.644 701.68 155.172L702.268 154.584ZM699.112 155.436C698.86 155.112 697.828 153.792 697.456 153.372V153.156H699.22V152.316H697.456V150.312C698.032 150.18 698.584 150.012 699.028 149.832L698.488 149.124C697.588 149.52 696.016 149.868 694.672 150.084C694.768 150.276 694.888 150.588 694.936 150.78C695.464 150.708 696.028 150.612 696.58 150.504V152.316H694.564V153.156H696.46C695.992 154.536 695.152 156.072 694.396 156.924C694.54 157.128 694.756 157.488 694.84 157.728C695.464 156.984 696.088 155.796 696.58 154.596V159.9H697.456V154.344C697.864 154.956 698.368 155.736 698.572 156.132L699.112 155.436ZM705.532 156.516L705.4 155.7L703.996 155.916V148.956H703.12V156.06L699.064 156.708L699.208 157.56L703.12 156.912V159.9H703.996V156.768L705.532 156.516ZM710.368 154.2C709.936 154.332 709.48 154.464 709.048 154.584V152.208H710.368V151.368H709.048V148.968H708.172V151.368H706.636V152.208H708.172V154.824C707.536 155.004 706.96 155.148 706.48 155.256L706.732 156.132L708.172 155.712V158.844C708.172 159.012 708.1 159.072 707.932 159.072C707.788 159.084 707.272 159.084 706.696 159.072C706.816 159.312 706.948 159.66 706.972 159.888C707.8 159.9 708.304 159.876 708.604 159.732C708.916 159.588 709.048 159.348 709.048 158.844V155.448C709.516 155.304 710.008 155.16 710.488 155.016L710.368 154.2ZM715.72 154.284C715.288 155.376 714.616 156.3 713.788 157.044C713.032 156.276 712.432 155.328 712.024 154.284H715.72ZM716.284 153.42L716.14 153.456H714.232V151.668H717.1V150.84H714.232V148.956H713.356V150.84H710.548V151.668H713.356V153.456H710.788V154.284H711.184L711.148 154.296C711.616 155.58 712.276 156.684 713.116 157.584C712.144 158.292 711.028 158.796 709.864 159.108C710.032 159.3 710.248 159.672 710.344 159.912C711.568 159.528 712.732 158.976 713.752 158.196C714.64 158.976 715.708 159.552 716.956 159.936C717.088 159.696 717.34 159.348 717.532 159.168C716.332 158.844 715.3 158.328 714.436 157.62C715.516 156.624 716.368 155.316 716.872 153.672L716.284 153.42ZM726.964 154.752H721.96V153.54H726.964V154.752ZM721.96 156.78V155.52H726.964V156.78H721.96ZM729.244 151.344V150.504H723.136C723.316 150.072 723.46 149.616 723.604 149.172L722.716 148.956C722.572 149.472 722.392 149.988 722.188 150.504H718.804V151.344H721.816C721.048 152.928 719.956 154.368 718.516 155.34C718.696 155.508 718.972 155.832 719.092 156.024C719.848 155.496 720.508 154.848 721.084 154.14V159.912H721.96V157.548H726.964V158.796C726.964 158.976 726.892 159.036 726.688 159.048C726.472 159.048 725.752 159.06 724.96 159.024C725.08 159.276 725.212 159.636 725.248 159.9C726.268 159.9 726.94 159.888 727.336 159.744C727.72 159.6 727.84 159.336 727.84 158.796V152.736H722.056C722.32 152.292 722.56 151.812 722.788 151.344H729.244ZM734.14 149.412L734.008 149.448H731.14V159.9H731.932V150.264H733.672C733.432 151.056 733.072 152.088 732.724 152.952C733.588 153.912 733.804 154.74 733.804 155.388C733.804 155.748 733.732 156.084 733.552 156.216C733.456 156.288 733.324 156.312 733.18 156.324C732.988 156.348 732.76 156.336 732.484 156.312C732.616 156.54 732.7 156.876 732.712 157.104C732.964 157.116 733.276 157.116 733.504 157.08C733.744 157.056 733.972 156.984 734.14 156.852C734.464 156.624 734.608 156.096 734.608 155.472C734.608 154.728 734.392 153.852 733.528 152.856C733.936 151.908 734.368 150.732 734.728 149.76L734.14 149.412ZM736.18 152.46H739.696V153.948H736.18V152.46ZM739.696 150.276V151.716H736.18V150.276H739.696ZM740.692 155.112C740.2 155.544 739.444 156.108 738.82 156.528C738.52 155.988 738.292 155.376 738.112 154.728H740.56V149.484H735.316V158.352C735.316 158.844 735.064 159.096 734.872 159.192C735.016 159.36 735.208 159.732 735.268 159.924C735.508 159.768 735.868 159.648 738.34 158.976C738.304 158.784 738.292 158.424 738.292 158.16L736.18 158.676V154.728H737.332C737.932 157.104 739.048 158.94 740.92 159.828C741.064 159.6 741.34 159.24 741.532 159.072C740.572 158.676 739.804 158.016 739.216 157.164C739.876 156.768 740.668 156.24 741.28 155.736L740.692 155.112ZM745.912 149.316C745.204 151.104 744.004 152.82 742.66 153.876C742.888 154.02 743.296 154.332 743.488 154.512C744.784 153.336 746.056 151.524 746.86 149.58L745.912 149.316ZM749.332 155.712C749.8 156.3 750.316 156.996 750.796 157.668L745.216 158.004C746.392 156.612 747.568 154.836 748.552 153.024L747.592 152.592C746.632 154.584 745.18 156.66 744.712 157.188C744.256 157.764 743.932 158.124 743.62 158.196C743.752 158.448 743.92 158.94 743.968 159.132C744.412 158.964 745.06 158.928 751.36 158.496C751.672 158.988 751.96 159.456 752.152 159.84L753.016 159.36C752.428 158.28 751.204 156.6 750.16 155.328L749.332 155.712ZM749.092 149.568C750.016 151.368 751.54 153.372 752.776 154.512C752.956 154.272 753.292 153.936 753.52 153.756C752.284 152.76 750.76 150.864 749.968 149.232L749.092 149.568ZM760.66 154.716V156.948H756.808V154.716H760.66ZM761.536 157.74V153.924H755.932V158.616H756.808V157.74H761.536ZM762.352 151.836H755.176V152.64H762.352V151.836ZM764.62 149.736H755.092V150.588H763.72V158.592C763.72 158.82 763.66 158.88 763.432 158.892C763.192 158.904 762.364 158.904 761.536 158.88C761.68 159.132 761.812 159.576 761.848 159.84C762.916 159.84 763.66 159.828 764.08 159.672C764.488 159.516 764.62 159.204 764.62 158.592V149.736Z" fill="#333333"/>
<line x1="405.5" y1="44" x2="405.5" y2="138" stroke="#CCCCCC"/>
<path d="M406 44.0001C222 44.0002 137 138 137 138" stroke="#1790FF"/>
<path d="M406 43.9999C580 43.9999 711 138 711 138" stroke="#CCCCCC"/>
<path d="M589.225 76.6431L578.351 79.557L581.265 68.6823L589.225 76.6431Z" fill="#C4C4C4"/>
<path d="M405.5 107.66L399.871 97.9102L411.129 97.9102L405.5 107.66Z" fill="#C4C4C4"/>
<path d="M238.09 74.1291L243.719 64.3791L249.348 74.1291L238.09 74.1291Z" fill="#1790FF"/>
<defs>
<filter id="filter0_d" x="0" y="134" width="274" height="49" filterUnits="userSpaceOnUse" color-interpolation-filters="sRGB">
<feFlood flood-opacity="0" result="BackgroundImageFix"/>
<feColorMatrix in="SourceAlpha" type="matrix" values="0 0 0 0 0 0 0 0 0 0 0 0 0 0 0 0 0 0 127 0"/>
<feOffset dy="4"/>
<feGaussianBlur stdDeviation="4"/>
<feColorMatrix type="matrix" values="0 0 0 0 0 0 0 0 0 0 0 0 0 0 0 0 0 0 0.1 0"/>
<feBlend mode="normal" in2="BackgroundImageFix" result="effect1_dropShadow"/>
<feBlend mode="normal" in="SourceGraphic" in2="effect1_dropShadow" result="shape"/>
</filter>
</defs>
</svg>
