<?xml version="1.0" encoding="UTF-8"?>
<svg width="20px" height="20px" viewBox="0 0 20 20" version="1.1" xmlns="http://www.w3.org/2000/svg" xmlns:xlink="http://www.w3.org/1999/xlink">
    <!-- Generator: Sketch 55.2 (78181) - https://sketchapp.com -->
    <title>ICON/20/interface</title>
    <desc>Created with Sketch.</desc>
    <g id="ICON/20/interface" stroke="none" stroke-width="1" fill="none" fill-rule="evenodd">
        <path d="M16.3125,7.15625 L16.3125,8.09375 C16.3125,8.1796875 16.2567979,8.25 16.1887175,8.25 L12.6237825,8.25 C12.5557021,8.25 12.5,8.1796875 12.5,8.09375 L12.5,7.15625 C12.5,7.0703125 12.5557021,7 12.6237825,7 L16.1887175,7 C16.2567979,7 16.3125,7.0703125 16.3125,7.15625 Z M16.1887175,9.8125 C16.2567979,9.8125 16.3125,9.8828125 16.3125,9.96875 L16.3125,10.90625 C16.3125,10.9921875 16.2567979,11.0625 16.1887175,11.0625 L12.6237825,11.0625 C12.5557021,11.0625 12.5,10.9921875 12.5,10.90625 L12.5,9.96875 C12.5,9.8828125 12.5557021,9.8125 12.6237825,9.8125 L16.1887175,9.8125 Z M15.4707792,12.625 C15.5388596,12.625 15.5945617,12.6953125 15.5945617,12.78125 L15.5945617,13.71875 C15.5945617,13.8046875 15.5388596,13.875 15.4707792,13.875 L12.6237825,13.875 C12.5557021,13.875 12.5,13.8046875 12.5,13.71875 L12.5,12.78125 C12.5,12.6953125 12.5557021,12.625 12.6237825,12.625 L15.4707792,12.625 Z M17.7220447,3 C18.4269169,3 19,3.58130787 19,4.2962963 L19,15.7037037 C19,16.4186921 18.4269169,17 17.7220447,17 L2.27795527,17 C1.57308307,17 1,16.4186921 1,15.7037037 L1,4.2962963 C1,3.58130787 1.57308307,3 2.27795527,3 L17.7220447,3 Z M17.5623003,15.5416667 L17.5623003,4.45833333 L2.43769968,4.45833333 L2.43769968,15.5416667 L17.5623003,15.5416667 Z M9.71890128,10.8945312 C10.8321825,11.5292969 11.5997607,12.703125 11.6564013,14.0605469 C11.6603075,14.1484375 11.589995,14.2226562 11.5001513,14.2226562 L10.5606982,14.2226562 C10.4767138,14.2226562 10.4083544,14.15625 10.4044482,14.0742188 C10.3282763,12.7226562 9.20132315,11.6445312 7.82827628,11.6445312 C6.4552294,11.6445312 5.32827628,12.7226562 5.2521044,14.0742188 C5.24624503,14.1582031 5.17788565,14.2226562 5.0958544,14.2226562 L4.15640128,14.2226562 C4.06851065,14.2226562 3.99624503,14.1484375 4.00015128,14.0605469 C4.05874503,12.7050781 4.82437003,11.5292969 5.93765128,10.8945312 C5.37124503,10.3808594 5.01577628,9.63867188 5.01577628,8.8125 C5.01577628,7.25976562 6.2755419,6 7.82827628,6 C9.38101065,6 10.6407763,7.25976562 10.6407763,8.8125 C10.6407763,9.63867188 10.2853075,10.3808594 9.71890128,10.8945312 Z M7.82827628,7.25 C6.96499503,7.25 6.26577628,7.94921875 6.26577628,8.8125 C6.26577628,9.67578125 6.96499503,10.375 7.82827628,10.375 C8.69155753,10.375 9.39077628,9.67578125 9.39077628,8.8125 C9.39077628,7.94921875 8.69155753,7.25 7.82827628,7.25 Z" id="Combined-Shape" fill="#6F7479" fill-rule="nonzero"></path>
    </g>
</svg>