<?xml version="1.0" encoding="UTF-8"?>
<svg width="20px" height="20px" viewBox="0 0 20 20" version="1.1" xmlns="http://www.w3.org/2000/svg" xmlns:xlink="http://www.w3.org/1999/xlink">
    <!-- Generator: Sketch 55.2 (78181) - https://sketchapp.com -->
    <title>ICON/20/USER</title>
    <desc>Created with Sketch.</desc>
    <g id="ICON/20/USER" stroke="none" stroke-width="1" fill="none" fill-rule="evenodd">
        <path d="M16.7675781,14.9140625 C16.3984375,14.0390625 15.8671875,13.2539062 15.1933594,12.5800781 C14.5195313,11.90625 13.734375,11.3769531 12.859375,11.0058594 C12.8515625,11.0019531 12.84375,11 12.8359375,10.9960938 C14.0527344,10.1171875 14.84375,8.68554688 14.84375,7.0703125 C14.84375,4.39453125 12.6757813,2.2265625 10,2.2265625 C7.32421875,2.2265625 5.15625,4.39453125 5.15625,7.0703125 C5.15625,8.68554688 5.94726563,10.1171875 7.1640625,10.9980469 C7.15625,11.0019531 7.1484375,11.0039062 7.140625,11.0078125 C6.265625,11.3769531 5.48046875,11.90625 4.80664063,12.5820312 C4.1328125,13.2558594 3.60351563,14.0410156 3.23242188,14.9160156 C2.86914063,15.7714844 2.67578125,16.6796875 2.65621027,17.6132812 C2.65429688,17.7011719 2.72460938,17.7734375 2.8125,17.7734375 L3.984375,17.7734375 C4.0703125,17.7734375 4.13867188,17.7050781 4.140625,17.6210938 C4.1796875,16.1132812 4.78515625,14.7011719 5.85546875,13.6308594 C6.96289063,12.5234375 8.43359375,11.9140625 10,11.9140625 C11.5664063,11.9140625 13.0371094,12.5234375 14.1445313,13.6308594 C15.2148438,14.7011719 15.8203125,16.1132812 15.859375,17.6210938 C15.8613281,17.7070312 15.9296875,17.7734375 16.015625,17.7734375 L17.1875,17.7734375 C17.2753906,17.7734375 17.3457031,17.7011719 17.3437897,17.6132812 C17.3242188,16.6796875 17.1308594,15.7714844 16.7675781,14.9140625 Z M10,10.4296875 C9.10351562,10.4296875 8.25976562,10.0800781 7.625,9.4453125 C6.99023438,8.81054688 6.640625,7.96679687 6.640625,7.0703125 C6.640625,6.17382812 6.99023438,5.33007812 7.625,4.6953125 C8.25976562,4.06054688 9.10351562,3.7109375 10,3.7109375 C10.8964844,3.7109375 11.7402344,4.06054688 12.375,4.6953125 C13.0097656,5.33007812 13.359375,6.17382812 13.359375,7.0703125 C13.359375,7.96679687 13.0097656,8.81054688 12.375,9.4453125 C11.7402344,10.0800781 10.8964844,10.4296875 10,10.4296875 Z" id="fill" fill="#6F7479" fill-rule="nonzero"></path>
    </g>
</svg>