<?xml version="1.0" encoding="UTF-8"?>
<svg width="20px" height="20px" viewBox="0 0 20 20" version="1.1" xmlns="http://www.w3.org/2000/svg" xmlns:xlink="http://www.w3.org/1999/xlink">
    <!-- Generator: Sketch 55.2 (78181) - https://sketchapp.com -->
    <title>ICON/20/关闭</title>
    <desc>Created with Sketch.</desc>
    <g id="ICON/20/关闭" stroke="none" stroke-width="1" fill="none" fill-rule="evenodd">
        <path d="M13.78125,2.43945313 C13.6777344,2.38671875 13.5546875,2.46289063 13.5546875,2.58007813 L13.5546875,3.83398438 C13.5546875,3.94140625 13.6113281,4.04101563 13.7011719,4.09960938 C14.1386719,4.375 14.5449219,4.69921875 14.9160156,5.07226563 C15.5546875,5.71289063 16.0566406,6.45703125 16.40625,7.28515625 C16.7675781,8.14257813 16.9511719,9.05273438 16.9511719,9.99414063 C16.9511719,10.9335938 16.7675781,11.8457031 16.40625,12.703125 C16.0566406,13.53125 15.5546875,14.2753906 14.9160156,14.9160156 C14.2773438,15.5566406 13.5332031,16.0585938 12.7050781,16.4082031 C11.8496094,16.7714844 10.9375,16.9550781 10,16.9550781 C9.0625,16.9550781 8.15039063,16.7714844 7.29492188,16.4082031 C6.46679688,16.0585938 5.72265625,15.5566406 5.08398438,14.9160156 C4.4453125,14.2753906 3.94335938,13.53125 3.59375,12.703125 C3.23242188,11.8457031 3.04882813,10.9355469 3.04882813,9.99414063 C3.04882813,9.0546875 3.23242188,8.14257813 3.59375,7.28515625 C3.94335938,6.45703125 4.4453125,5.71289063 5.08398438,5.07226563 C5.45507813,4.70117188 5.86132813,4.37695313 6.29882813,4.09960938 C6.390625,4.04296875 6.4453125,3.94140625 6.4453125,3.83398438 L6.4453125,2.578125 C6.4453125,2.4609375 6.32226563,2.38671875 6.21875,2.4375 C3.48632813,3.8125 1.6015625,6.62695313 1.5625,9.88867188 C1.5078125,14.5527344 5.32226563,18.4277344 9.984375,18.4375189 C14.6523438,18.4472656 18.4375,14.6621094 18.4375,9.9921875 C18.4375,6.6875 16.5429688,3.82617188 13.78125,2.43945313 Z M9.375,10.9375 L10.625,10.9375 C10.7109375,10.9375 10.78125,10.8671875 10.78125,10.78125 L10.78125,1.71875 C10.78125,1.6328125 10.7109375,1.5625 10.625,1.5625 L9.375,1.5625 C9.2890625,1.5625 9.21875,1.6328125 9.21875,1.71875 L9.21875,10.78125 C9.21875,10.8671875 9.2890625,10.9375 9.375,10.9375 Z" id="fill" fill="#6F7479" fill-rule="nonzero"></path>
    </g>
</svg>