<?xml version="1.0" encoding="UTF-8"?>
<svg width="20px" height="20px" viewBox="0 0 20 20" version="1.1" xmlns="http://www.w3.org/2000/svg" xmlns:xlink="http://www.w3.org/1999/xlink">
    <!-- Generator: Sketch 55.2 (78181) - https://sketchapp.com -->
    <title>ICON/20/指南</title>
    <desc>Created with Sketch.</desc>
    <g id="ICON/20/指南" stroke="none" stroke-width="1" fill="none" fill-rule="evenodd">
        <path d="M10,19 C14.9705627,19 19,14.9705627 19,10 C19,5.02943725 14.9705627,1 10,1 C5.02943725,1 1,5.02943725 1,10 C1,14.9705627 5.02943725,19 10,19 Z M10,20 C4.4771525,20 0,15.5228475 0,10 C0,4.4771525 4.4771525,0 10,0 C15.5228475,0 20,4.4771525 20,10 C20,15.5228475 15.5228475,20 10,20 Z M14.9333024,5.81562352 L12.0221486,11.8078058 C11.9444487,11.9272858 11.8641589,12.0441684 11.7476091,12.0831293 L5.85278162,14.9220783 C5.77508179,14.9610391 5.69479196,15 5.61709212,15 C5.45910246,15 5.30111279,14.9610391 5.18456304,14.8415591 C4.98772346,14.6831182 4.94887354,14.4077947 5.06542329,14.1714321 L7.93513721,8.14028895 C7.97398713,8.02080894 8.09312688,7.90392632 8.20967663,7.86496545 L14.1459441,5.06757476 C14.3816336,4.94809475 14.658763,4.98705562 14.8167526,5.18445738 C15.0110022,5.37926174 15.0524421,5.65458525 14.9333024,5.81562352 Z M10.0200828,8.82859771 C9.35186421,8.82859771 8.84162548,9.34288123 8.84162548,10.0104109 C8.8390453,10.6805379 9.34927422,11.192224 10.0200828,11.192224 C10.6468615,11.192224 11.1985303,10.6779405 11.1985303,10.0104109 C11.1985303,9.34028384 10.6468615,8.82859771 10.0200828,8.82859771 Z" id="Combined-Shape" fill="#6F7479" fill-rule="nonzero"></path>
    </g>
</svg>