<?xml version="1.0" encoding="UTF-8"?>
<svg width="20px" height="20px" viewBox="0 0 20 20" version="1.1" xmlns="http://www.w3.org/2000/svg" xmlns:xlink="http://www.w3.org/1999/xlink">
    <!-- Generator: Sketch 55.2 (78181) - https://sketchapp.com -->
    <title>ICON/20/搜索</title>
    <desc>Created with Sketch.</desc>
    <g id="ICON/20/搜索" stroke="none" stroke-width="1" fill="none" fill-rule="evenodd">
        <path d="M13.59601,12.5353498 L17.5303301,16.4696699 C17.8232233,16.7625631 17.8232233,17.2374369 17.5303301,17.5303301 C17.2374369,17.8232233 16.7625631,17.8232233 16.4696699,17.5303301 L12.5353498,13.59601 C11.426768,14.4750413 10.0246893,15 8.5,15 C4.91014913,15 2,12.0898509 2,8.5 C2,4.91014913 4.91014913,2 8.5,2 C12.0898509,2 15,4.91014913 15,8.5 C15,10.0246893 14.4750413,11.426768 13.59601,12.5353498 Z M8.5,13.5 C11.2614237,13.5 13.5,11.2614237 13.5,8.5 C13.5,5.73857625 11.2614237,3.5 8.5,3.5 C5.73857625,3.5 3.5,5.73857625 3.5,8.5 C3.5,11.2614237 5.73857625,13.5 8.5,13.5 Z" id="Combined-Shape" fill="#6F7479" fill-rule="nonzero"></path>
    </g>
</svg>