<?xml version="1.0" encoding="UTF-8"?>
<svg width="32px" height="32px" viewBox="0 0 32 32" version="1.1" xmlns="http://www.w3.org/2000/svg" xmlns:xlink="http://www.w3.org/1999/xlink">
    <!-- Generator: Sketch 55.2 (78181) - https://sketchapp.com -->
    <title>ICON/32左树/相关企业</title>
    <desc>Created with Sketch.</desc>
    <g id="ICON/32左树/相关企业" stroke="none" stroke-width="1" fill="none" fill-rule="evenodd">
        <path d="M20,17 L20,5 L8,5 L8,27 L8.5,27 C9.32842712,27 10,27.6715729 10,28.5 C10,29.3284271 9.32842712,30 8.5,30 L3.5,30 C2.67157288,30 2,29.3284271 2,28.5 C2,27.6715729 2.67157288,27 3.5,27 L5,27 L5,3 C5,2.44771525 5.44771525,2 6,2 L22,2 C22.5522847,2 23,2.44771525 23,3 L23,17 L20,17 Z M10,7 L13,7 L13,10 L10,10 L10,7 Z M10,12 L13,12 L13,15 L10,15 L10,12 Z M15,7 L18,7 L18,10 L15,10 L15,7 Z M15,12 L18,12 L18,15 L15,15 L15,12 Z M27,27 L27,22 L22,22 C21.4477153,22 21,21.5522847 21,21 L21,20 C21,19.4477153 21.4477153,19 22,19 L29,19 C29.2761424,19 29.5261424,19.1119288 29.7071068,19.2928932 C29.8880712,19.4738576 30,19.7238576 30,20 L30,28 L30,29 C30,29.5522847 29.5522847,30 29,30 L22,30 C21.4477153,30 21,29.5522847 21,29 L21,28 C21,27.4477153 21.4477153,27 22,27 L27,27 Z M14,27 L19,27 C19.5522847,27 20,27.4477153 20,28 L20,29 C20,29.5522847 19.5522847,30 19,30 L12,30 C11.7238576,30 11.4738576,29.8880712 11.2928932,29.7071068 C11.1119288,29.5261424 11,29.2761424 11,29 L11,20 C11,19.4477153 11.4477153,19 12,19 L13,19 L19,19 C19.5522847,19 20,19.4477153 20,20 L20,21 C20,21.5522847 19.5522847,22 19,22 L14,22 L14,27 Z M17,23 L24,23 C24.5522847,23 25,23.4477153 25,24 L25,25 C25,25.5522847 24.5522847,26 24,26 L17,26 C16.4477153,26 16,25.5522847 16,25 L16,24 C16,23.4477153 16.4477153,23 17,23 Z" id="Combined-Shape" fill="#6F7479" fill-rule="nonzero"></path>
    </g>
</svg>