<?xml version="1.0" encoding="UTF-8"?>
<svg width="32px" height="32px" viewBox="0 0 32 32" version="1.1" xmlns="http://www.w3.org/2000/svg" xmlns:xlink="http://www.w3.org/1999/xlink">
    <!-- Generator: Sketch 55.2 (78181) - https://sketchapp.com -->
    <title>ICON/32左树/个人中心</title>
    <desc>Created with Sketch.</desc>
    <defs>
        <path d="M12.2237193,21.1638252 L8.99451613,26.6017882 L22.9748387,26.6017882 L21.5925806,24.3670588 C21.2773226,23.8572955 21.252328,23.2145049 21.5270121,22.6808201 C21.8016962,22.1471353 22.334328,21.8036357 22.9242702,21.7797142 C23.5142123,21.7557927 24.0718387,22.0550837 24.3870968,22.5648471 L26.5129032,26.0016 C27.0408347,26.7679352 27.1194108,27.7666458 26.7180645,28.6092235 C26.3135484,29.4525176 25.5051613,29.9762824 24.6077419,29.9762824 L7.39225806,29.9762824 C6.49483871,29.9762824 5.68645161,29.4525176 5.28258065,28.6092235 C4.88401242,27.7731011 4.95799917,26.7824684 5.47612903,26.0177412 L9.43838048,19.3457931 C7.47948916,17.5244276 6.25,14.8991656 6.25,11.9811765 C6.25,6.48296471 10.6151613,2.02536471 16,2.02536471 C21.3848387,2.02536471 25.75,6.48 25.75,11.9811765 C25.75,17.4823529 21.3848387,21.9383059 16,21.9383059 C14.6610516,21.9383059 13.3851474,21.6626218 12.2237193,21.1638252 Z M16,5.58101064 C14.3367768,5.57630864 12.7408504,6.251376 11.5680645,7.45571765 C9.45370095,9.61488261 9.12736947,12.9985709 10.7886414,15.537453 C12.4499134,18.0763352 15.6361012,19.0632969 18.3986588,17.8947514 C21.1612164,16.726206 22.7307327,13.7276098 22.1473538,10.7327853 C21.5639749,7.73796072 18.9901801,5.58101064 16,5.58101064 Z" id="path-1"></path>
    </defs>
    <g id="ICON/32左树/个人中心" stroke="none" stroke-width="1" fill="none" fill-rule="evenodd">
        <mask id="mask-2" fill="white">
            <use xlink:href="#path-1"></use>
        </mask>
        <use id="Combined-Shape" fill="#6F7479" fill-rule="nonzero" xlink:href="#path-1"></use>
    </g>
</svg>