<?xml version="1.0" encoding="UTF-8"?>
<svg width="32px" height="32px" viewBox="0 0 32 32" version="1.1" xmlns="http://www.w3.org/2000/svg" xmlns:xlink="http://www.w3.org/1999/xlink">
    <!-- Generator: Sketch 55.2 (78181) - https://sketchapp.com -->
    <title>ICON/32左树/企业设立</title>
    <desc>Created with Sketch.</desc>
    <g id="ICON/32左树/企业设立" stroke="none" stroke-width="1" fill="none" fill-rule="evenodd">
        <path d="M3,27 L3,3 C3,2.44771525 3.44771525,2 4,2 L20,2 C20.5522847,2 21,2.44771525 21,3 L21,7 L28,7 C28.5522847,7 29,7.44771525 29,8 L29,27 L30.5,27 C31.3284271,27 32,27.6715729 32,28.5 C32,29.3284271 31.3284271,30 30.5,30 L1.5,30 C0.671572875,30 1.01453063e-16,29.3284271 0,28.5 C-1.01453063e-16,27.6715729 0.671572875,27 1.5,27 L3,27 Z M21,27 L26,27 L26,10 L21,10 L21,27 Z M6,27 L18,27 L18,7 L18,5 L6,5 L6,27 Z M8,7 L11,7 L11,10 L8,10 L8,7 Z M8,12 L11,12 L11,15 L8,15 L8,12 Z M8,17 L11,17 L11,20 L8,20 L8,17 Z M8,22 L11,22 L11,25 L8,25 L8,22 Z M13,7 L16,7 L16,10 L13,10 L13,7 Z M22,12 L25,12 L25,15 L22,15 L22,12 Z M22,17 L25,17 L25,20 L22,20 L22,17 Z M22,22 L25,22 L25,25 L22,25 L22,22 Z M13,12 L16,12 L16,15 L13,15 L13,12 Z M13,17 L16,17 L16,20 L13,20 L13,17 Z M13,22 L16,22 L16,25 L13,25 L13,22 Z" id="Combined-Shape" fill="#6F7479" fill-rule="nonzero"></path>
    </g>
</svg>