<?xml version="1.0" encoding="UTF-8"?>
<svg width="32px" height="32px" viewBox="0 0 32 32" version="1.1" xmlns="http://www.w3.org/2000/svg" xmlns:xlink="http://www.w3.org/1999/xlink">
    <!-- Generator: Sketch 55.2 (78181) - https://sketchapp.com -->
    <title>ICON/32左树/我的消息</title>
    <desc>Created with Sketch.</desc>
    <g id="ICON/32左树/我的消息" stroke="none" stroke-width="1" fill="none" fill-rule="evenodd">
        <path d="M24.8712808,21 L27,21 L27,7 L5,7 L5,21 L21.0187947,21 L21.0187947,24.3769446 L24.8712808,21 Z M3,4 L29,4 C29.5522847,4 30,4.44771525 30,5 L30,23 C30,23.5522847 29.5522847,24 29,24 L26,24 L19.6779645,29.5416589 C19.2626496,29.9057083 18.63085,29.8641495 18.2668006,29.4488346 C18.1069337,29.2664552 18.0187947,29.0321924 18.0187947,28.7896648 L18.0187947,24 L3,24 C2.44771525,24 2,23.5522847 2,23 L2,5 C2,4.44771525 2.44771525,4 3,4 Z M10,16 C8.8954305,16 8,15.1045695 8,14 C8,12.8954305 8.8954305,12 10,12 C11.1045695,12 12,12.8954305 12,14 C12,15.1045695 11.1045695,16 10,16 Z M16,16 C14.8954305,16 14,15.1045695 14,14 C14,12.8954305 14.8954305,12 16,12 C17.1045695,12 18,12.8954305 18,14 C18,15.1045695 17.1045695,16 16,16 Z M22,16 C20.8954305,16 20,15.1045695 20,14 C20,12.8954305 20.8954305,12 22,12 C23.1045695,12 24,12.8954305 24,14 C24,15.1045695 23.1045695,16 22,16 Z" id="Combined-Shape" fill="#6F7479" fill-rule="nonzero"></path>
    </g>
</svg>